<svg width="1200" height="700" version="1.1" viewBox="0 0 317.5 185.21" xmlns="http://www.w3.org/2000/svg">
 <defs>
  <filter id="filter27580" x="-.030231" y="-.024479" width="1.0605" height="1.049" color-interpolation-filters="sRGB">
   <feGaussianBlur stdDeviation="0.011805339"/>
  </filter>
 </defs>
 <g transform="matrix(.22655 0 0 .22655 -1209.3 -321.76)">
  <g transform="matrix(.62901 0 0 .62901 9426.7 -2405.1)">
   <ellipse transform="rotate(-15)" cx="-7084.1" cy="5068" rx="540.04" ry="537.99" fill="none" stroke="#000" stroke-dasharray="124.042, 31.0104, 15.5052, 31.0104" stroke-linecap="round" stroke-linejoin="round" stroke-width="15.505" style="paint-order:normal"/>
   <path transform="matrix(.41025 0 0 .41025 -15812 3675.2)" d="m25055 6193.4 0.01 0.016c-481.72 0.8373-920.59 276.9-1129.9 710.75-20.304-1.3682-40.648-2.078-60.998-2.125-518.72 0.011-939.22 420.51-939.23 939.23-0.05 518.76 431.6 938.99 939.23 939.34 838.01 0 1261.3 0.3573 1819.9 0.6661h1366.1c0.01 0-217.57 2.0065 0 0 222.9-2.0557 445.76-92.383 602.66-250.73 156.89-158.35 244.92-372.24 244.92-595.16 0-224.26-89.088-439.34-247.67-597.92-158.58-158.58-373.66-247.67-597.92-247.67-1.234-1e-4 -2.468 0-3.702 0.01-97.325-212.53-310.67-352.17-548.85-352.19-121.91 8e-4 -240.96 36.9-341.5 105.85-221.12-401.03-642.84-650.08-1100.8-650.07z" fill="#0070ff" style="paint-order:normal"/>
   <path d="m-4869.6 7256.7a345.88 345.88 0 0 1-229.15-295.84" fill="none" stroke="#fff" stroke-linecap="round" stroke-linejoin="round" stroke-width="2.3258" style="paint-order:stroke fill markers"/>
   <circle cx="-6019.7" cy="6892.7" r="363.76" fill="none" stroke="#000" stroke-linecap="round" stroke-linejoin="round" stroke-width="6.2022" style="paint-order:normal"/>
   <text x="-4822.502" y="6973.5996" fill="#ffffff" font-family="'Ubuntu Condensed'" font-size="117.01px" stroke-width="8.9048" text-anchor="middle" style="line-height:1.33;paint-order:normal" xml:space="preserve"><tspan x="-4822.502" y="6973.5996" text-align="center" style="paint-order:normal">DISEÑO</tspan><tspan x="-4822.502" y="7129.228" text-align="center" style="paint-order:normal">WEB</tspan></text>
   <g fill="none" stroke-linecap="round" stroke-linejoin="round">
    <path d="m-4906.8 7256.9a345.88 345.88 0 0 1-221.75-246.53" stroke="#fff" stroke-width="2.3258" style="paint-order:stroke fill markers"/>
    <path d="m-4834.5 7255.4c60.956-17.016 127.57-59.709 172.98-105.26 68.859-69.076 107.52-162.53 107.55-259.96-0.018-122.09-60.597-236.25-161.79-304.9" stroke="#000" stroke-dasharray="16.2903, 8.14511, 4.07256, 8.14511" stroke-width="4.0726" style="paint-order:stroke fill markers"/>
    <path d="m-4946.6 7256.7a345.88 345.88 0 0 1-208.75-211.12" stroke="#fff" stroke-width="2.3258" style="paint-order:stroke fill markers"/>
   </g>
   <ellipse cx="-5531" cy="6728.9" rx="489.51" ry="490.42" fill="#06f" stroke="#000" stroke-linecap="round" stroke-linejoin="round" stroke-width="12.724" style="paint-order:stroke fill markers"/>
   <g fill="#fff">
    <path d="m-5919.3 6964.1c-1.8165-0.011-3.626 0.603-5.0878 1.8425-2.9225 2.4798-3.6059 6.7391-1.6157 10.09 1.9908 3.3504 6.0752 4.8159 9.6724 3.4703l10.67 12.588c0.9529 1.1246 0.8293 2.7952-0.2758 3.7316l-17.964 15.114a495.93 495.93 0 0 0 3.0766 4.3866l18.339-15.43c3.3031-2.8171 3.6722-7.8189 0.8265-11.196l-10.67-12.587c1.6767-2.9121 1.2911-6.5445-0.8277-9.0901-0.3036-0.3631-0.6411-0.7046-1.0134-1.0186-1.4895-1.256-3.3131-1.8905-5.1296-1.901zm35.541 1.3555c-1.8171-0.011-3.6269 0.6031-5.0888 1.8425-2.9227 2.4798-3.6058 6.7391-1.6155 10.089 1.9907 3.3506 6.0749 4.8161 9.6719 3.4705l8.9457 10.553c0.9534 1.1244 0.8293 2.7945-0.2758 3.7315l-39.21 33.111a495.93 495.93 0 0 0 3.2549 4.238l39.405-33.278c3.303-2.8176 3.6727-7.8202 0.8272-11.196l-8.9452-10.552c1.6763-2.9123 1.2915-6.5446-0.8272-9.0901-0.3033-0.363-0.64-0.7044-1.0122-1.0185-1.4896-1.2563-3.3137-1.8906-5.1305-1.9011zm42.124 16.985c-1.8843-0.06-3.7786 0.5498-5.2999 1.8441-2.5259 2.1592-3.3998 5.701-2.184 8.8485l-53.997 45.643a495.93 495.93 0 0 0 3.3642 4.1446l54.084-45.718c3.4975 2.0532 7.9316 1.1725 10.304-2.0465 2.224-3.0179 1.9718-7.19-0.5081-9.9918-0.165-0.1869-0.3401-0.3673-0.5254-0.5412-1.4802-1.3911-3.354-2.1229-5.238-2.1835zm-45.728 12.427c-0.592 0-1.1827 0.205-1.6665 0.6148l-28.677 24.186a495.93 495.93 0 0 0 3.1657 4.3118l28.962-24.427c1.104-0.9385 1.2284-2.6071 0.275-3.7316-0.5358-0.6324-1.2987-0.9576-2.0596-0.9538zm37.497 18.797c-1.7751 0.01-3.5481 0.6094-5.0002 1.8332l-39.757 33.572a495.93 495.93 0 0 0 3.4707 4.0488c2.2408-1.918 39.737-33.552 39.737-33.552 1.104-0.9387 2.774-0.7849 3.7269 0.3395l8.9459 10.552c-1.9164 3.3281-1.139 7.5967 1.8402 10.109 2.9797 2.5123 7.2944 2.5374 10.218 0.058 2.9224-2.4796 3.6059-6.7391 1.6156-10.09-0.2493-0.4189-0.5307-0.8082-0.8402-1.1664-2.1643-2.5066-5.6845-3.4813-8.8322-2.3038l-8.9452-10.551c-1.6122-1.8899-3.8971-2.8608-6.1792-2.8506zm-6.4372 17.842c-0.5923 0-1.1834 0.2041-1.6673 0.6141l-29.662 25.018a495.93 495.93 0 0 0 3.561 3.977l29.552-24.924c1.1069-0.9355 1.2296-2.6076 0.2767-3.7317-0.5363-0.6326-1.2991-0.9569-2.0605-0.9531zm0.2309 15.405c-1.7749 0.01-3.548 0.6093-5.0006 1.8331l-19.391 16.315a495.93 495.93 0 0 0 3.6395 3.8934c5.9473-5.0052 19.202-16.137 19.202-16.137 1.1039-0.9387 2.774-0.7853 3.727 0.3388l10.67 12.587c-1.9158 3.3282-1.1384 7.5972 1.8412 10.109 2.9795 2.5123 7.2936 2.5366 10.218 0.058 2.9228-2.4798 3.6066-6.7392 1.6163-10.09-0.2488-0.4189-0.5312-0.8087-0.8401-1.1666-2.1645-2.5065-5.6855-3.4813-8.8326-2.3038l-10.671-12.587c-1.6118-1.8899-3.8966-2.8608-6.1788-2.8506z" style="paint-order:stroke fill markers"/>
    <g transform="matrix(59.532 0 0 46.219 -12174 5492)" style="paint-order:normal">
     <rect x="102.35" y="36.195" width="2.0837" height=".67096" rx=".58939" ry=".53885" fill="#fff" style="paint-order:normal"/>
     <text transform="scale(1.1421 .87557)" x="89.721779" y="41.96003" fill="#0070ff" font-family="'Ubuntu Condensed'" font-size=".90655px" stroke="#0070ff" stroke-linecap="round" stroke-width="0" style="line-height:1.25;paint-order:stroke fill markers" xml:space="preserve"><tspan x="89.721779" y="41.96003" fill="#0070ff" font-family="'Ubuntu Condensed'" font-size=".90655px" stroke="#0070ff" stroke-linecap="round" stroke-width="0" style="paint-order:stroke fill markers">www</tspan></text>
    </g>
    <g transform="matrix(-.52656 .0053988 .0056588 .50236 -5114 7141.4)" stroke-width="15.937" style="paint-order:normal">
     <g fill="#fff" stroke-width="15.937" style="paint-order:normal">
      <g transform="translate(28.035 14.045)" fill="#fff" stroke-width="15.937" style="paint-order:normal">
       <g fill="#fff" stroke-width="15.937" style="paint-order:normal">
        <path d="m214.59 126.87c-11.869 0-21.725 8.668-23.639 20h-16.361c-13.234 0-24 10.76-24 23.986v44.014h8v-44.014c0-8.814 7.178-15.986 16-15.986h16.361c1.913 11.332 11.77 20 23.639 20 13.234 0 24-10.766 24-24s-10.766-24-24-24zm0 40c-8.822 0-16-7.178-16-16s7.178-16 16-16 16 7.178 16 16-7.178 16-16 16z" style="paint-order:normal"/>
        <path d="m95.823 64.208h-16c0-13.234-10.766-24-24-24s-24 10.766-24 24 10.766 24 24 24c10.426 0 19.295-6.693 22.6-16h17.4c8.822 0 16 7.188 16 16.024v123.98h8v-123.98c0-13.247-10.766-24.024-24-24.024zm-40 16c-8.822 0-16-7.178-16-16s7.178-16 16-16 16 7.178 16 16-7.178 16-16 16z" style="paint-order:normal"/>
        <path d="m59.142 126.87h-16.361c-1.914-11.332-11.77-20-23.639-20-13.234 0-24 10.766-24 24s10.766 24 24 24c11.869 0 21.725-8.668 23.639-20h16.361c8.822 0 16 7.184 16 16.014v63.986h8v-63.986c0-13.24-10.766-24.014-24-24.014zm-40 20c-8.822 0-16-7.178-16-16s7.178-16 16-16 16 7.178 16 16-7.178 16-16 16z" style="paint-order:normal"/>
        <path d="m152.78 9.2066 10.419 7.983c-4.8378 10.323-1.7587 23.414 7.828 30.759 10.689 8.1897 25.449 6.1691 32.904-4.5043 7.4543-10.673 4.8227-26.019-5.8665-34.208-9.5867-7.345-22.43-6.4533-30.359 1.5016l-10.419-7.983c-5.0862-3.8968-6.3373-11.2-2.7881-16.282l30.74-43.912-6.4617-4.9507-30.74 43.912c-6.0424 8.6315-3.9062 21.058 4.7436 27.685zm40.778 6.4814c7.1256 5.4594 8.8802 15.691 3.911 22.806-4.9692 7.1151-14.81 8.4622-21.936 3.0028-7.1256-5.4594-8.8802-15.691-3.911-22.806 4.9692-7.1151 14.81-8.4622 21.936-3.0028z" style="paint-order:normal"/>
       </g>
      </g>
     </g>
    </g>
    <g transform="matrix(-.48502 0 0 .48502 -6060.7 6716.8)" stroke-width="15.984" style="paint-order:normal">
     <g fill="#fff" stroke-width="15.984" style="paint-order:normal">
      <g fill="#fff" stroke-width="15.984" style="paint-order:normal">
       <path d="m456 0h-288c-13.255 0-24 10.745-24 24v176h-104c-13.255 0-24 10.745-24 24v160h-8c-4.418 0-8 3.582-8 8 0.026 22.08 17.92 39.974 40 40h256c22.069 0.022 39.978-17.851 40-39.92v-0.08c0-4.418-3.582-8-8-8h-8v-88h88c4.418 0 8-3.582 8-8s-3.582-8-8-8h-41.968l-11.424-40h101.39c13.255 0 24-10.745 24-24v-192c0-13.255-10.745-24-24-24zm-424 224c0-4.418 3.582-8 8-8h256c4.418 0 8 3.582 8 8v160h-112c-4.418 0-8 3.582-8 8h-32c0-4.418-3.582-8-8-8h-112zm281.02 184.94c-4.519 4.51-10.64 7.047-17.024 7.056h-256c-10.168-0.012-19.229-6.418-22.632-16h118.63c0 4.418 3.582 8 8 8h48c4.418 0 8-3.582 8-8h118.63c-1.192 3.356-3.107 6.409-5.608 8.944zm6.976-128.94v-40h17.968l11.424 40zm144-64c0 4.418-3.582 8-8 8h-136c0-13.255-10.745-24-24-24h-136v-176c0-4.418 3.582-8 8-8h288c4.418 0 8 3.582 8 8z" style="paint-order:normal"/>
       <path d="m440 304h-64c-13.255 0-24 10.745-24 24v128c0 13.255 10.745 24 24 24h64c13.255 0 24-10.745 24-24v-128c0-13.255-10.745-24-24-24zm8 152c0 4.418-3.582 8-8 8h-64c-4.418 0-8-3.582-8-8v-128c0-4.418 3.582-8 8-8h64c4.418 0 8 3.582 8 8z" style="paint-order:normal"/>
      </g>
     </g>
    </g>
    <g transform="matrix(.011731 -.14879 -.15031 -.011852 -4534.9 6817.2)" stroke="#06f" stroke-width="41.809" style="paint-order:stroke fill markers">
     <g fill="#fff" stroke="#06f" stroke-width="41.809" style="paint-order:stroke fill markers">
      <path d="m61.2 341.54c4.9 16.8 11.7 33 20.3 48.2l-24.5 30.9c-8 10.1-7.1 24.5 1.9 33.6l42.2 42.2c9.1 9.1 23.5 9.899 33.6 1.899l30.7-24.3c15.8 9.101 32.6 16.2 50.1 21.2l4.6 39.5c1.5 12.8 12.3 22.4 25.1 22.4h59.7c12.8 0 23.6-9.601 25.1-22.4l4.4-38.1c18.8-4.9 36.8-12.2 53.7-21.7l29.7 23.5c10.1 8 24.5 7.1 33.6-1.9l42.2-42.2c9.1-9.1 9.9-23.5 1.9-33.6l-23.1-29.3c9.6-16.601 17.1-34.3 22.1-52.8l35.6-4.1c12.801-1.5 22.4-12.3 22.4-25.1v-59.7c0-12.8-9.6-23.6-22.4-25.1l-35.1-4.1c-4.801-18.3-12-35.8-21.199-52.2l21.6-27.3c8-10.1 7.1-24.5-1.9-33.6l-42.1-42.1c-9.1-9.1-23.5-9.9-33.6-1.9l-26.5 21c-17.2-10.1-35.601-17.8-54.9-23l-4-34.3c-1.5-12.8-12.3-22.4-25.1-22.4h-59.7c-12.8 0-23.6 9.6-25.1 22.4l-4 34.3c-19.8 5.3-38.7 13.3-56.3 23.8l-27.5-21.8c-10.1-8-24.5-7.1-33.6 1.9l-42.2 42.2c-9.1 9.1-9.9 23.5-1.9 33.6l23 29.1c-9.2 16.6-16.2 34.3-20.8 52.7l-36.8 4.2c-12.8 1.5-22.4 12.3-22.4 25.1v59.7c0 12.8 9.6 23.6 22.4 25.1zm216.3-161.5c54.4 0 98.7 44.3 98.7 98.7s-44.3 98.7-98.7 98.7c-54.399 0-98.7-44.3-98.7-98.7s44.3-98.7 98.7-98.7z" style="paint-order:stroke fill markers"/>
      <path d="m867.7 356.24-31.5-26.6c-9.699-8.2-24-7.8-33.199 0.9l-17.4 16.3c-14.699-7.1-30.299-12.1-46.4-15l-4.898-24c-2.5-12.4-14-21-26.602-20l-41.1 3.5c-12.6 1.1-22.5 11.4-22.9 24.1l-0.799 24.4c-15.801 5.7-30.701 13.5-44.301 23.3l-20.799-13.8c-10.602-7-24.701-5-32.9 4.7l-26.6 31.7c-8.201 9.7-7.801 24 0.898 33.2l18.201 19.399c-6.301 14.2-10.801 29.101-13.4 44.4l-26 5.3c-12.4 2.5-21 14-20 26.601l3.5 41.1c1.1 12.6 11.4 22.5 24.1 22.9l28.1 0.899c5.102 13.4 11.801 26.101 19.9 38l-15.699 23.7c-7 10.6-5 24.7 4.699 32.9l31.5 26.6c9.701 8.2 24 7.8 33.201-0.9l20.6-19.3c13.5 6.3 27.699 11 42.299 13.8l5.701 28.2c2.5 12.4 14 21 26.6 20l41.1-3.5c12.6-1.1 22.5-11.399 22.9-24.1l0.9-27.601c15-5.3 29.199-12.5 42.299-21.399l22.701 15c10.6 7 24.699 5 32.9-4.7l26.6-31.5c8.199-9.7 7.799-24-0.9-33.2l-18.301-19.399c6.701-14.2 11.602-29.2 14.4-44.601l25-5.1c12.4-2.5 21-14 20-26.601l-3.5-41.1c-1.1-12.6-11.4-22.5-24.1-22.9l-25.1-0.8c-5.201-14.6-12.201-28.399-20.9-41.2l13.699-20.6c7.201-10.598 5.201-24.798-4.5-32.998zm-154.9 237.6c-44.4 3.801-83.602-29.3-87.301-73.699-3.801-44.4 29.301-83.601 73.699-87.301 44.4-3.8 83.602 29.301 87.301 73.7 3.801 44.401-29.301 83.601-73.699 87.3z" style="paint-order:stroke fill markers"/>
      <path d="m205 704.44c-12.6 1.3-22.3 11.899-22.4 24.6l-0.3 25.3c-0.2 12.7 9.2 23.5 21.8 25.101l18.6 2.399c3.1 11.301 7.5 22.101 13.2 32.301l-12 14.8c-8 9.899-7.4 24.1 1.5 33.2l17.7 18.1c8.9 9.1 23.1 10.1 33.2 2.3l14.899-11.5c10.5 6.2 21.601 11.101 33.2 14.5l2 19.2c1.3 12.6 11.9 22.3 24.6 22.4l25.301 0.3c12.699 0.2 23.5-9.2 25.1-21.8l2.3-18.2c12.601-3.101 24.601-7.8 36-14l14 11.3c9.9 8 24.101 7.4 33.201-1.5l18.1-17.7c9.1-8.899 10.1-23.1 2.301-33.2l-10.702-13.901c6.6-11 11.701-22.7 15.201-35l16.6-1.7c12.6-1.3 22.299-11.9 22.4-24.6l0.299-25.301c0.201-12.699-9.199-23.5-21.799-25.1l-16.201-2.1c-3.1-12.2-7.699-24-13.699-35l10.1-12.4c8-9.9 7.4-24.1-1.5-33.2l-17.699-18.1c-8.9-9.101-23.102-10.101-33.201-2.3l-12.101 9.3c-11.399-6.9-23.6-12.2-36.399-15.8l-1.601-15.7c-1.3-12.601-11.899-22.3-24.6-22.4l-25.3-0.3c-12.7-0.2-23.5 9.2-25.101 21.8l-2 15.601c-13.199 3.399-25.899 8.6-37.699 15.399l-12.5-10.2c-9.9-8-24.101-7.399-33.201 1.5l-18.2 17.801c-9.1 8.899-10.1 23.1-2.3 33.199l10.7 13.801c-6.2 11-11.1 22.699-14.3 35zm163.3-28.601c36.3 0.4 65.399 30.301 65 66.601-0.4 36.3-30.301 65.399-66.601 65-36.3-0.4-65.399-30.3-65-66.601 0.401-36.299 30.301-65.399 66.601-65z" style="paint-order:stroke fill markers"/>
     </g>
    </g>
   </g>
   <path d="m-4749.2 6585.7c-35.457-67.205-103.27-111.18-179.09-116.12-6.7194-0.4382-13.456-0.5656-20.187-0.3819-112.87 3.0836-204.81 91.621-212.16 204.29-5.0963 79.649 33.622 155.74 101.01 198.51" fill="#0070ff" stroke="#fff" stroke-dasharray="7.63099, 15.262" stroke-dashoffset="3.8155" stroke-linecap="round" stroke-linejoin="round" stroke-width="7.631" style="paint-order:normal"/>
   <text x="-5528.5679" y="6544.1758" fill="#ffffff" font-family="'Ubuntu Condensed'" font-size="135.52px" stroke-width="7.7528" text-anchor="middle" style="line-height:1.4;paint-order:normal" xml:space="preserve"><tspan x="-5528.5679" y="6544.1758" text-align="center" style="paint-order:normal">DOMINIO</tspan><tspan x="-5528.5679" y="6733.8979" text-align="center" style="paint-order:normal">ALOJAMIENTO</tspan><tspan x="-5528.5679" y="6923.6206" text-align="center" style="paint-order:normal">EMAIL</tspan><tspan x="-5528.5679" y="7113.3428" text-align="center" style="paint-order:normal"/></text>
   <g transform="matrix(.41113 -.59425 .59425 .41113 -5365.7 6607.3)" fill="#fff" stroke="#06f" stroke-width="19.869" style="paint-order:normal">
    <g transform="matrix(.58192 0 0 .58192 50.967 -62.928)" stroke="none" style="paint-order:normal">
     <path d="m398.34-727.91c15.312-10.809-104.41 71.316-104.41 71.316l-53.156-75.3c-3.5992-5.0987-8.5776-8.1942-14.934-9.291-6.354-1.0972-12.083 0.157-17.181 3.7555l-28.239 19.934-9.9679-14.121c-2.7676-3.9206-6.4948-6.2856-11.177-7.0938-4.6834-0.80692-8.9831 0.17291-12.907 2.9427l-47.061 33.221c-3.9237 2.7698-6.2892 6.495-7.096 11.178-0.80588 4.6831 0.17558 8.9858 2.9432 12.906l33.223 47.064c2.7676 3.9206 6.4947 6.2856 11.176 7.0948 4.6828 0.8082 8.9846-0.17399 12.908-2.9438l47.061-33.221c3.9237-2.7698 6.2876-6.493 7.0945-11.176 0.80588-4.6831-0.17408-8.9869-2.9417-12.907l-9.9675-14.12 28.239-19.934 53.156 75.3-28.239 19.934-9.9665-14.119c-2.7687-3.9222-6.4947-6.2856-11.177-7.0938-4.6833-0.80787-8.9831 0.1729-12.907 2.9427l-47.061 33.221c-3.9237 2.7698-6.2896 6.4945-7.096 11.178-0.80757 4.6815 0.17454 8.9842 2.9432 12.906l33.222 47.062c2.7702 3.9242 6.4954 6.2866 11.177 7.0968 4.683 0.80386 8.9853-0.17296 12.909-2.9428l47.061-33.221c3.9237-2.7698 6.2875-6.493 7.0937-11.177 0.80602-4.684-0.17296-8.9853-2.9432-12.91l-9.965-14.116 28.239-19.934 53.157 75.302-28.239 19.934-9.9679-14.121c-2.7672-3.9201-6.4954-6.2866-11.179-7.0953-4.6814-0.8056-8.9812 0.17546-12.905 2.9453l-47.061 33.221c-3.9237 2.7698-6.2896 6.4945-7.0978 11.175-0.80594 4.6836 0.17704 8.9879 2.9443 12.908l33.223 47.064c2.7672 3.9201 6.494 6.2845 11.174 7.0928 4.6835 0.80917 8.9853-0.17298 12.909-2.9428l47.061-33.221c3.9234-2.7703 6.2867-6.4932 7.0959-11.174 0.80766-4.682-0.17297-8.9854-2.9428-12.909l-9.9654-14.117 28.239-19.934c5.0976-3.5985 8.197-8.578 9.2914-14.932 1.098-6.3561-0.15674-12.087-3.7553-17.185l-53.155-75.3s120-82.322 104.41-71.316" style="paint-order:normal"/>
    </g>
   </g>
   <g transform="matrix(4.6517 0 0 4.6517 -6142.6 6593.4)" fill="#fff" stroke-width="2.6641" style="paint-order:normal">
    <rect width="4" height="4" style="paint-order:normal"/>
    <rect x="6" width="4" height="4" style="paint-order:normal"/>
    <rect x="12" width="4" height="4" style="paint-order:normal"/>
    <rect y="6" width="4" height="4" style="paint-order:normal"/>
    <rect x="6" y="6" width="4" height="4" style="paint-order:normal"/>
    <rect x="12" y="6" width="4" height="4" style="paint-order:normal"/>
    <rect y="12" width="4" height="4" style="paint-order:normal"/>
    <rect x="6" y="12" width="4" height="4" style="paint-order:normal"/>
    <rect x="12" y="12" width="4" height="4" style="paint-order:normal"/>
   </g>
   <g transform="matrix(62.023 0 0 62.022 -10601 4515.9)" stroke-width=".06404" style="paint-order:normal">
    <g transform="matrix(.0020833 0 0 .0019531 97.821 39.987)" fill="#fff" style="paint-order:normal">
     <g fill="#fff" style="paint-order:normal">
      <g fill="#fff" style="paint-order:normal">
       <path d="m406 332c-29.641 0-55.761 14.581-72.167 36.755l-141.84-72.631c2.355-8.027 4.01-16.346 4.01-25.124 0-11.906-2.441-23.225-6.658-33.636l148.44-89.328c16.52 19.388 40.802 31.964 68.213 31.964 49.629 0 90-40.371 90-90s-40.371-90-90-90-90 40.371-90 90c0 11.437 2.355 22.286 6.262 32.358l-148.89 89.59c-16.506-18.812-40.438-30.948-67.375-30.948-49.629 0-90 40.371-90 90s40.371 90 90 90c30.13 0 56.691-15.009 73.035-37.806l141.38 72.395c-2.604 8.406-4.411 17.161-4.411 26.411 0 49.629 40.371 90 90 90s90-40.371 90-90-40.371-90-90-90z" fill="#fff" style="paint-order:normal"/>
      </g>
     </g>
    </g>
   </g>
   <circle cx="-4714" cy="6930.9" r="345.88" fill="none" stroke="#000" stroke-linecap="round" stroke-linejoin="round" stroke-width="6.2022" style="paint-order:stroke fill markers"/>
   <g fill="#fff">
    <g transform="matrix(1.5158 -.95176 .95177 1.5158 -4220.6 -7690.1)" stroke-width=".23092">
     <path d="m-4455.2 6840.3 17.846-4.7819a2.5397 2.5404 74.997 0 0 1.7965-3.1107l-4.7806-17.841a2.5397 2.5404 74.997 0 0-3.1112-1.7957l-17.846 4.7819a2.5397 2.5404 74.997 0 0-1.7966 3.1107l4.7806 17.841a2.5397 2.5404 74.997 0 0 3.1112 1.7957zm-5.7048-19.506a1.1544 1.1547 74.997 0 1 0.8166-1.4139l16.508-4.4233a1.1544 1.1547 74.997 0 1 1.4142 0.8162l4.422 16.503a1.1544 1.1547 74.997 0 1-0.8166 1.414l-16.508 4.4232a1.1544 1.1547 74.997 0 1-1.4142-0.8162z"/>
     <rect transform="rotate(165)" x="6061.5" y="-5445.6" width="6.2356" height="6.4648"/>
     <path d="m-4444.1 6817.5-14.277 3.8256 3.8245 14.273 14.277-3.8255zm1.0399 11.912a1.1544 1.1547 74.997 0 1-0.8166 1.4139l-8.2539 2.2117a1.1544 1.1547 74.997 0 1-1.4142-0.8162l-2.2111-8.2517a1.1544 1.1547 74.997 0 1 0.8167-1.4139l8.2539-2.2117a1.1544 1.1547 74.997 0 1 1.4142 0.8162z"/>
    </g>
    <g transform="matrix(101.94 0 0 101.94 -15173 2926)" stroke-width=".083252" style="paint-order:normal">
     <path class="st1" d="m87.481 40.774-0.0093 0.02305c-0.0035-0.0018-0.0073-0.0023-0.01229-0.0023-0.01345 0-0.02395 0.0079-0.02395 0.02459v0.01806h0.03739v0.02459h-0.03739v0.11871h-0.02689v-0.11871h-0.02689v-0.02459h0.02689v-0.01895c0-0.0292 0.02075-0.04828 0.05084-0.04828 0.0091 1.28e-4 0.0155 0.0013 0.02164 0.0038z" style="paint-order:normal"/>
     <path class="st1" d="m87.628 40.909c0 0.04354-0.03073 0.07632-0.07363 0.07632s-0.07363-0.03278-0.07363-0.07632 0.03073-0.07632 0.07363-0.07632 0.07363 0.03278 0.07363 0.07632zm-0.02689 0c0-0.03278-0.0228-0.05173-0.04674-0.05173-0.02395 0-0.04674 0.01895-0.04674 0.05173s0.02279 0.05174 0.04674 0.05174 0.04674-0.01908 0.04674-0.05174z" style="paint-order:normal"/>
     <path class="st1" d="m87.65 40.98v-0.14317h0.02574v0.02343h0.0012c0.0059-0.01639 0.02664-0.02689 0.04149-0.02689 0.0087 0 0.0146 0.0012 0.02011 0.0035l-0.01025 0.0251c-0.0038-0.0014-0.0085-2e-3 -0.01434-2e-3 -0.01844 0-0.03714 0.01549-0.03714 0.04175v0.07837z" style="paint-order:normal"/>
     <path class="st1" d="m87.84 40.797v0.06633h0.08593v0.0251h-0.08593v0.06633h0.09527v0.02574h-0.12217v-0.20924h0.12217v0.02574z" style="paint-order:normal"/>
     <path class="st1" d="m87.988 40.857h0.0012c0.0076-0.01319 0.02574-0.02459 0.04533-0.02459 0.0365 0 0.05468 0.02484 0.05468 0.06019v0.08772h-0.02689v-0.08362c0-0.02984-0.01486-0.0397-0.03534-0.0397-0.02343 0-0.03765 0.02215-0.03765 0.04418v0.07914h-0.02689v-0.14317h0.02574v0.01985z" style="paint-order:normal"/>
     <path class="st1" d="m88.129 40.937v-0.07517h-0.0251v-0.02459h0.0251v-0.04379h0.02689v0.04379h0.03509v0.02459h-0.03509v0.07312c0 0.01613 0.0067 0.02343 0.01934 0.02343 5e-3 0 0.0085-6.4e-4 0.01229-0.0023l0.0093 0.02305c-0.0061 0.0027-0.01255 0.0038-0.02164 0.0038-0.03009-1.28e-4 -0.04623-0.01678-0.04623-0.04597z" style="paint-order:normal"/>
     <path class="st1" d="m88.214 40.98v-0.14317h0.02574v0.02343h0.0012c0.0059-0.01639 0.02664-0.02689 0.04149-0.02689 0.0087 0 0.0146 0.0012 0.02011 0.0035l-0.01024 0.0251c-0.0038-0.0014-0.0085-2e-3 -0.01434-2e-3 -0.01844 0-0.03714 0.01549-0.03714 0.04175v0.07837z" style="paint-order:normal"/>
     <path class="st1" d="m88.303 40.909c0-0.04059 0.02804-0.07632 0.07017-0.07632 0.04264 0 0.07018 0.03009 0.07018 0.07632 0 2e-3 -2.57e-4 5e-3 -2.57e-4 5e-3h-0.11307c0.0014 0.03035 0.02344 0.04674 0.04559 0.04674 0.01575 0 0.0315-0.0064 0.03919-0.02459l0.02395 0.01c-0.0085 0.02049-0.02958 0.03919-0.06249 0.03919-0.04405-1.28e-4 -0.07325-0.03317-0.07325-0.07632zm0.06953-0.05173c-0.01985 0-0.0356 0.01345-0.04098 0.03445h0.08298c-7.69e-4 -0.01255-0.01127-0.03445-0.042-0.03445z" style="paint-order:normal"/>
     <path class="st1" d="m88.491 40.961h-0.0012l0.0012 0.01985v0.06313h-0.02689v-0.2063h0.02574v0.01985h0.0012c0.0082-0.01319 0.02599-0.02459 0.04879-0.02459 0.03624 0 0.06813 0.0324 0.06813 0.07632s-0.03189 0.07632-0.06813 0.07632c-0.02279-1.28e-4 -0.04059-0.01152-0.04879-0.02459zm0.09002-0.05174c0-0.03214-0.02164-0.05173-0.04559-0.05173s-0.04559 0.01895-0.04559 0.05173 0.02164 0.05174 0.04559 0.05174 0.04559-0.01959 0.04559-0.05174z" style="paint-order:normal"/>
     <path class="st1" d="m88.628 40.98v-0.14317h0.02574v0.02343h0.0012c0.0059-0.01639 0.02663-0.02689 0.04149-0.02689 0.0087 0 0.0146 0.0012 0.0201 0.0035l-0.01024 0.0251c-0.0038-0.0014-0.0085-2e-3 -0.01434-2e-3 -0.01844 0-0.03714 0.01549-0.03714 0.04175v0.07837z" style="paint-order:normal"/>
     <path class="st1" d="m88.717 40.909c0-0.04059 0.02805-0.07632 0.07018-0.07632 0.04264 0 0.07018 0.03009 0.07018 0.07632 0 2e-3 -2.56e-4 5e-3 -2.56e-4 5e-3h-0.11308c0.0014 0.03035 0.02343 0.04674 0.04559 0.04674 0.01575 0 0.0315-0.0064 0.03919-0.02459l0.02395 0.01c-0.0085 0.02049-0.02945 0.03919-0.06249 0.03919-0.04405-1.28e-4 -0.07325-0.03317-0.07325-0.07632zm0.06954-0.05173c-0.01985 0-0.0356 0.01345-0.04098 0.03445h0.08298c-7.68e-4 -0.01255-0.0114-0.03445-0.042-0.03445z" style="paint-order:normal"/>
     <path class="st1" d="m88.904 40.857h0.0012c0.0076-0.01319 0.02574-0.02459 0.04533-0.02459 0.0365 0 0.05468 0.02484 0.05468 0.06019v0.08772h-0.02689v-0.08362c0-0.02984-0.01485-0.0397-0.03534-0.0397-0.02343 0-0.03765 0.02215-0.03765 0.04418v0.07914h-0.02689v-0.14317h0.02574z" style="paint-order:normal"/>
     <path class="st1" d="m89.026 40.909c0-0.04059 0.02804-0.07632 0.07018-0.07632 0.04264 0 0.07018 0.03009 0.07018 0.07632 0 2e-3 -2.56e-4 5e-3 -2.56e-4 5e-3h-0.11307c0.0014 0.03035 0.02343 0.04674 0.04559 0.04674 0.01575 0 0.0315-0.0064 0.03919-0.02459l0.02395 0.01c-0.0085 0.02049-0.02958 0.03919-0.06249 0.03919-0.04405-1.28e-4 -0.07325-0.03317-0.07325-0.07632zm0.06954-0.05173c-0.01985 0-0.0356 0.01345-0.04098 0.03445h0.08298c-7.69e-4 -0.01255-0.01127-0.03445-0.042-0.03445z" style="paint-order:normal"/>
     <path class="st1" d="m89.288 40.98v-0.01985h-0.0012c-0.0079 0.01319-0.02574 0.02459-0.04533 0.02459-0.03688 0-0.05468-0.02484-0.05468-0.06019v-0.08772h0.02689v0.08324c0 0.02984 0.01485 0.04008 0.03534 0.04008 0.02344 0 0.03765-0.02254 0.03765-0.04444v-0.07888h0.02689v0.14317z" style="paint-order:normal"/>
     <path class="st1" d="m89.343 40.98v-0.14317h0.02574v0.02343h0.0012c0.0059-0.01639 0.02664-0.02689 0.04149-0.02689 0.0087 0 0.0146 0.0012 0.0201 0.0035l-0.01024 0.0251c-0.0038-0.0014-0.0085-2e-3 -0.01434-2e-3 -0.01844 0-0.03714 0.01549-0.03714 0.04175v0.07837z" style="paint-order:normal"/>
     <path class="st1" d="m89.436 40.944 0.02395-0.01c0.0076 0.01806 0.02164 0.02689 0.03893 0.02689 0.01665 0 0.02868-0.0082 0.02868-0.02011 0-0.0073-0.0044-0.01524-0.01959-0.01895l-0.02894-7e-3c-0.01319-0.0032-0.03829-0.0146-0.03829-0.0397 0-0.026 0.02689-0.04264 0.05673-0.04264 0.02484 0 0.04648 0.0114 0.05519 0.03329l-0.02343 0.0096c-0.0055-0.01345-0.0187-0.01895-0.03278-0.01895-0.01524 0-0.0283 0.0067-0.0283 0.01844 0 0.0091 0.0076 0.01409 0.01895 0.01665l0.0283 0.0067c0.0283 0.0067 0.03944 0.0242 0.03944 0.04175 0 0.02548-0.02279 0.04495-0.05634 0.04495-0.03432 0-0.05391-0.02036-0.06249-0.04085z" style="paint-order:normal"/>
     <g transform="matrix(.0012806 0 0 .0012806 87.349 40.002)" style="paint-order:normal">
      <path class="st1" d="m1365.7 27.2h61.2v409.5h-61.2z" style="paint-order:normal"/>
      <path class="st1" d="m586.2 166.6c-77.1 0-139.9 58.6-139.9 139.3 0 80.2 62.8 139.3 139.9 139.3s139.9-59.1 139.9-139.3c0-80.8-62.8-139.3-139.9-139.3zm0 223.7c-42.2 0-78.6-34.8-78.6-84.4 0-50.1 36.4-84.4 78.6-84.4s78.6 34.3 78.6 84.4c0 49.6-36.4 84.4-78.6 84.4z" style="paint-order:normal"/>
      <path class="st1" d="m223.1 209.3v59.1h141.4c-4.2 33.2-15.3 57.5-32.2 74.4-20.6 20.6-52.8 43.3-109.2 43.3-87.1 0-155.1-70.2-155.1-157.3s68-157.2 155.1-157.2c47 0 81.3 18.5 106.6 42.2l41.7-41.7c-35.4-33.8-82.3-59.6-148.3-59.6-119.3 0-219.5 97.1-219.5 216.4s100.3 216.4 219.5 216.4c64.4 0 112.9-21.1 150.9-60.7 39.1-39.1 51.2-93.9 51.2-138.3 0-13.7-1.1-26.4-3.2-36.9h-198.9z" style="paint-order:normal"/>
      <path class="st1" d="m1594.7 390.3c-31.1 0-53.3-14.2-67.6-42.2l186.3-77.1-6.3-15.8c-11.6-31.1-47-88.7-119.3-88.7-71.8 0-131.4 56.5-131.4 139.3 0 78.1 59.1 139.3 138.3 139.3 63.9 0 100.8-39.1 116.1-61.7l-47.5-31.7c-15.8 23.3-37.4 38.6-68.6 38.6zm-4.7-169.9c24.3 0 44.9 12.1 51.7 29.6l-124.5 51.7c-1.6-53.9 41.6-81.3 72.8-81.3z" style="paint-order:normal"/>
      <path class="st1" d="m1265.4 197.7h-2.1c-13.7-16.4-40.1-31.1-73.4-31.1-69.7 0-133.5 61.2-133.5 139.9 0 78.1 63.9 138.8 133.5 138.8 33.2 0 59.6-14.8 73.4-31.7h2.1v20.1c0 53.3-28.5 81.8-74.4 81.8-37.5 0-60.7-26.9-70.2-49.6l-53.3 22.2c15.3 36.9 55.9 82.3 123.5 82.3 71.8 0 132.5-42.2 132.5-145.1v-250.3h-58.1zm-70.2 192.6c-42.2 0-77.6-35.4-77.6-83.9 0-49.1 35.4-85 77.6-85 41.7 0 74.4 35.9 74.4 85 0 48.6-32.7 83.9-74.4 83.9z" style="paint-order:normal"/>
      <path class="st1" d="m891.2 166.6c-77.1 0-139.9 58.6-139.9 139.3 0 80.2 62.8 139.3 139.9 139.3s139.9-59.1 139.9-139.3c0-80.8-62.8-139.3-139.9-139.3zm0 223.7c-42.2 0-78.6-34.8-78.6-84.4 0-50.1 36.4-84.4 78.6-84.4s78.6 34.3 78.6 84.4c0.1 49.6-36.3 84.4-78.6 84.4z" style="paint-order:normal"/>
     </g>
    </g>
    <g transform="matrix(.19189 -.16275 .16555 .19519 -6016.5 7034)" style="paint-order:stroke fill markers">
     <path d="m17.025 349.86 39.781 6.52c6.285 30.461 18.313 59.448 35.441 85.41l-23.558 32.879c-4.888 6.654-4.804 15.735 0.207 22.298 5.94 7.261 12.252 14.21 18.909 20.82 6.716 6.727 13.639 12.926 20.769 18.919 6.567 5.021 15.66 5.105 22.319 0.207l32.858-23.569c25.937 17.138 54.903 29.174 85.348 35.462l6.51 39.812c1.24 8.144 7.738 14.474 15.912 15.499 5.662 0.641 11.366 1.033 17.194 1.323 20.202 0.33529 24.26-0.595 24.26-0.595-10.176-61.284-12.68-94.848-12.68-94.848-0.03-5.582-5.1335-7.8192-10.712-8.0082-104.42-5.413-186.3-91.655-186.3-196.21s81.887-190.8 186.3-196.21c5.579-0.189 14.513-4.4598 14.543-10.043 2.0998-22.919 8.7761-67.911 12.176-87.071-6.9142-2.3994-23.846-6.4023-27.557-6.2867-5.807 0.241-11.548 0.648-17.225 1.219-8.176 1.114-14.648 7.469-15.912 15.623l-6.51 39.812c-30.444 6.297-59.409 18.335-85.348 35.472l-32.858-23.579c-6.659-4.899-15.752-4.815-22.319 0.207-7.241 5.948-14.173 12.263-20.769 18.919-6.707 6.562-13.021 13.514-18.909 20.82-5.032 6.571-5.116 15.676-0.207 22.339l23.558 32.879c-17.124 25.953-29.152 54.928-35.441 85.379l-39.781 6.51c-8.146 1.244-14.475 7.746-15.499 15.923-2.034 18.543-2.034 37.253 0 55.796 0.919 8.312 7.25 15.002 15.5 16.376z" style="paint-order:stroke fill markers"/>
     <path d="m286.3 155.13c-81.631 5.171-145.19 72.886-145.19 154.68s63.562 149.51 145.19 154.68c2.597 0.108 5.125-0.855 6.992-2.664s2.91-4.305 2.886-6.904c-11.308-106-7.2879-196.48 0-290.22 0.025-2.6-1.018-5.095-2.886-6.904-1.867-1.809-4.395-2.772-6.992-2.664z" style="paint-order:stroke fill markers"/>
    </g>
    <g transform="matrix(.25261 .058899 -.058076 .2566 -4642.6 7081.1)">
     <path d="m27.045 465.45a21.01 21.01 0 0 0 20.925 19.554q0.74 0 1.485-0.052a21.006 21.006 0 1 0-22.41-19.5z"/>
     <circle cx="87.978" cy="424.02" r="8"/>
     <circle cx="110.6" cy="401.4" r="8"/>
     <path d="m127.58 373.11a8 8 0 1 0 11.313 0 8 8 0 0 0-11.313 0z"/>
     <path d="m150.2 350.48a8 8 0 1 0 11.314 0 8 8 0 0 0-11.314 0z"/>
     <path d="m162.01 250.95 25.142 81.25 4.6518-41.854a6.8863 7.2191 77.707 0 1 2.515-4.5881l190.44-160.47z"/>
     <path d="m209.57 291.19 72.967 69.194 155.97-271.02z"/>
     <path d="m200.49 342.3 17.58-23.431-13.549-12.849z"/>
     <path d="m154.72 239.18 283.79-149.81-326.64 109.18z"/>
    </g>
    <g transform="matrix(.25086 0 0 .24228 -5595.3 6997.7)">
     <g fill="#fff">
      <g fill="#fff">
       <path d="m256 0c-102.24 0-185.43 83.182-185.43 185.43 0 126.89 165.94 313.17 173 321.04 6.636 7.391 18.222 7.378 24.846 0 7.065-7.868 173-194.15 173-321.04-2e-3 -102.24-83.183-185.43-185.43-185.43zm0 278.72c-51.442 0-93.292-41.851-93.292-93.293s41.851-93.292 93.292-93.292 93.291 41.851 93.291 93.293-41.85 93.292-93.291 93.292z" fill="#fff"/>
      </g>
     </g>
    </g>
    <path d="m-5116.3 6932.5a8.2999 8.2976 78.928 0 0-4.3266 15.184 8.4596 8.4573 78.928 0 0 4.8993 1.4004l0.016 0.085a5.7665 5.7649 78.928 0 1-4.551 6.7426 8.4494 8.4471 78.928 0 0-6.6665 9.8873l0.1668 0.8517a32.871 32.862 78.928 0 0-8.1334-0.2001c-0.6593 0.064-1.3092 0.1471-1.9599 0.2457l-3.2184-16.451a8.2908 8.2885 78.928 1 0-7.5138-0.8894 8.2473 8.245 78.928 0 0 4.8844 1.4032l3.2176 16.448a33.66 33.651 78.928 0 0-9.3668 3.7607l-0.1645-0.8462a8.4494 8.4471 78.928 0 0-9.9007-6.647 5.7665 5.7649 78.928 0 1-6.7562-4.5304l-0.019-0.084a8.4609 8.4586 78.928 0 0 4.0111-3.144 8.2899 8.2876 78.928 1 0-11.51 2.2514 8.3749 8.3726 78.928 0 0 4.8695 1.4061l0.017 0.085a8.4497 8.4473 78.928 0 0 9.9007 6.6468 5.7662 5.7646 78.928 0 1 6.7561 4.5305l0.3737 1.9093a33.329 33.319 78.928 0 0-6.4428 6.0144 34.694 34.684 78.928 0 0-6.8513 13.765l-1.9193 0.3755a5.7662 5.7646 78.928 0 1-6.7413-4.5531 8.4497 8.4473 78.928 0 0-9.8858-6.6689l-0.084 0.017a8.2991 8.2968 78.928 1 0-0.8859 7.5296 8.4567 8.4543 78.928 0 0 1.4003-4.8991l0.085-0.019a5.7665 5.7649 78.928 0 1 6.7419 4.553 8.4494 8.4471 78.928 0 0 9.8855 6.6696l0.8681-0.1702a32.682 32.673 78.928 0 0-0.1954 8.1037c0.064 0.6687 0.1472 1.3304 0.2495 1.9904l-16.471 3.2224a8.3087 8.3064 78.928 1 0 0.5148 2.6305l16.467-3.2215a33.013 33.004 78.928 0 0 3.7709 9.3675l-0.881 0.172a8.4494 8.4471 78.928 0 0-6.6435 9.9026 5.7665 5.7649 78.928 0 1-4.5292 6.7575l-0.081 0.017a8.3117 8.3094 78.928 1 0 0.5042 2.6326l0.09-0.018a8.4497 8.4473 78.928 0 0 6.6448-9.903 5.7662 5.7646 78.928 0 1 4.5286-6.7573l1.9482-0.381a33.093 33.083 78.928 0 0 5.9959 6.419 34.594 34.585 78.928 0 0 1.5584 1.2035 345.68 345.68 0 0 0 3.2361-3.9672 28.772 28.764 78.928 0 1-6.7684-7.0313 1.3401 1.3397 78.928 0 1 2.2177-1.5034 26.095 26.088 78.928 0 0 6.2225 6.4375 345.68 345.68 0 0 0 3.1725-4.0732 5.6159 5.6143 78.928 0 1-2.1231-3.4342l-0.2518-1.2888-4.7896 0.9367a1.3401 1.3397 78.928 0 1-0.5148-2.6299l4.7895-0.9375-1.0289-5.2605-4.7897 0.9369a1.3402 1.3398 78.928 0 1-0.514-2.6306l4.7897-0.9367-1.0298-5.2605-4.7891 0.9368a1.3403 1.3399 78.928 0 1-0.515-2.6305l4.7897-0.9369-0.2808-1.4385a5.4864 5.4849 78.928 0 1 4.4165-6.4714l1.3636-0.2663-0.9518-4.8668a1.3403 1.3399 78.928 0 1 2.63-0.5139l0.9517 4.8661 5.259-1.0291-0.952-4.8655a1.3403 1.3399 78.928 0 1 2.63-0.5146l0.9519 4.8661 5.2589-1.0286-0.952-4.866a1.3403 1.3399 78.928 0 1 2.6299-0.5148l0.9521 4.8656 1.3635-0.2662a5.4864 5.4849 78.928 0 1 4.0037 0.685 345.68 345.68 0 0 0 6.3881-11.288 33.62 33.611 78.928 0 0-10.056-4.1828l-0.3735-1.9067a5.7662 5.7646 78.928 0 1 4.5512-6.7425 8.4497 8.4473 78.928 0 0 6.6663-9.8878l-0.017-0.085a8.372 8.3696 78.928 0 0 3.9799-3.1376 8.2999 8.2976 78.928 0 0-7.1819-12.933zm-40.936 75.538a1.3402 1.3398 78.928 0 1 1.3286 0.9042c0.1501 0.4199 0.3115 0.8419 0.4825 1.2539a1.3401 1.3397 78.928 1 1-2.4748 1.0262h-5e-4c-0.1891-0.4547-0.3676-0.9206-0.532-1.3841a1.3402 1.3398 78.928 0 1 1.1962-1.8002z" style="paint-order:stroke fill markers"/>
   </g>
   <text transform="matrix(1.0012 0 0 .92242 3.9935 516.21)" x="-5068.9751" y="6769.7109" fill="#ffffff" filter="url(#filter27580)" font-family="'Ubuntu Condensed'" font-size="302.7px" stroke="#0070ff" stroke-width="12.718" style="line-height:1.25;paint-order:normal" xml:space="preserve"><tspan x="-5068.9751" y="6769.7109" fill="#ffffff" font-family="'Ubuntu Condensed'" font-size="302.7px" stroke="#0070ff" stroke-width="12.718" style="paint-order:normal">@</tspan></text>
  </g>
  <path d="m5632 2159.1h737.59" fill="none" stroke="#fff" stroke-dasharray="16.7787, 8.38936, 4.19467, 8.38936" stroke-linecap="round" stroke-linejoin="round" stroke-width="4.1947"/>
 </g>
 <g transform="matrix(.42031 -.08842 .08842 .42031 -2523.3 -51)" fill="#fff">
  <ellipse transform="matrix(1 .00018697 .00018742 1 0 0)" cx="6140.2" cy="1638.2" rx="7.6443" ry="7.6259" style="paint-order:markers stroke fill"/>
  <circle cx="6122" cy="1634.2" r="3.18" style="paint-order:markers stroke fill"/>
  <circle cx="6109.7" cy="1630.9" r="4.9403" style="paint-order:markers stroke fill"/>
  <circle cx="6120.9" cy="1624.5" r="2.4393" style="paint-order:markers stroke fill"/>
  <circle cx="6099" cy="1623.9" r="1.4011" style="paint-order:markers stroke fill"/>
  <circle cx="6128.6" cy="1642" r="1.7592" style="paint-order:markers stroke fill"/>
 </g>
 <g transform="matrix(.42031 -.08842 .08842 .42031 -2522.8 -51.434)">
  <ellipse transform="matrix(1 .00018697 .00018742 1 0 0)" cx="6140.2" cy="1638.2" rx="7.6443" ry="7.6259" style="paint-order:markers stroke fill"/>
  <circle cx="6122" cy="1634.2" r="3.18" style="paint-order:markers stroke fill"/>
  <circle cx="6109.7" cy="1630.9" r="4.9403" style="paint-order:markers stroke fill"/>
  <circle cx="6120.9" cy="1624.5" r="2.4393" style="paint-order:markers stroke fill"/>
  <circle cx="6099" cy="1623.9" r="1.4011" style="paint-order:markers stroke fill"/>
  <circle cx="6128.6" cy="1642" r="1.7592" style="paint-order:markers stroke fill"/>
 </g>
 <style type="text/css">.st0{opacity:7.000000e-02;enable-background:new    ;}</style>
 <style type="text/css">.st0{opacity:7.000000e-02;enable-background:new    ;}</style>
</svg>
