<?xml version="1.0" encoding="UTF-8"?>
<!DOCTYPE svg PUBLIC "-//W3C//DTD SVG 1.1//EN" "http://www.w3.org/Graphics/SVG/1.1/DTD/svg11.dtd">
<!-- Creator: CorelDRAW 2020 (64-Bit) -->
<svg xmlns="http://www.w3.org/2000/svg" xml:space="preserve" width="100%" height="100%" version="1.1" style="shape-rendering:geometricPrecision; text-rendering:geometricPrecision; image-rendering:optimizeQuality; fill-rule:evenodd; clip-rule:evenodd"
viewBox="0 0 1334.2 1367.2"
 xmlns:xlink="http://www.w3.org/1999/xlink"
 xmlns:xodm="http://www.corel.com/coreldraw/odm/2003">
 <defs>
  <style type="text/css">
   <![CDATA[
    .fil0 {fill:#253141;fill-rule:nonzero}
   ]]>
  </style>
 </defs>
 <g id="Capa_x0020_1">
  <metadata id="CorelCorpID_0Corel-Layer"/>
  <path class="fil0" d="M2.17 1268.3l14.57 -581.56c6.4,-255.3 52.17,-686.74 754.2,-686.74l485.73 0c22.17,0 40.57,8.8 55.37,26.7 14.76,17.9 22.16,38.4 22.16,61.84l0 1191.09c0,24.74 -8.33,45.57 -25.26,62.17 -16.9,16.93 -36.9,25.4 -60.27,25.4l-169.5 0c-24.57,0 -44.9,-8.47 -60.57,-25.4 -16.03,-16.6 -24.03,-38.1 -24.03,-64.13l0 -240.57 -638.27 0 -5.03 229.9c-0.57,26.8 -19.7,47.23 -40.9,64.1 -20.86,16.63 -43.06,25.1 -66.76,25.1l-177.77 0c-23.33,0 -41.07,-8.6 -53.2,-25.73 -8.13,-11.5 -12.8,-24.47 -12.63,-39.07 0.06,-7.13 1.96,-14.57 2.16,-23.1zm359.93 -504.43l629.04 3.7 0 -498.03 -273.3 0c-223.87,0 -359.97,181.8 -358.37,298.63l2.63 195.7z"/>
 </g>
</svg>
