<?xml version="1.0" encoding="UTF-8"?>
<!DOCTYPE svg PUBLIC "-//W3C//DTD SVG 1.1//EN" "http://www.w3.org/Graphics/SVG/1.1/DTD/svg11.dtd">
<!-- Creator: CorelDRAW 2020 (64-Bit) -->
<svg xmlns="http://www.w3.org/2000/svg" xml:space="preserve" width="100%" height="100%" version="1.1" style="shape-rendering:geometricPrecision; text-rendering:geometricPrecision; image-rendering:optimizeQuality; fill-rule:evenodd; clip-rule:evenodd"
viewBox="0 0 13249.17 5752.63"
 xmlns:xlink="http://www.w3.org/1999/xlink"
 xmlns:xodm="http://www.corel.com/coreldraw/odm/2003">
 <defs>
  <style type="text/css">
   <![CDATA[
    .str0 {stroke:#373435;stroke-width:20;stroke-miterlimit:22.9256}
    .fil5 {fill:#FFF212}
    .fil4 {fill:#ED3237}
    .fil6 {fill:#00AFEF}
    .fil7 {fill:#00A859}
    .fil8 {fill:#22EA15}
    .fil0 {fill:#253141}
    .fil3 {fill:#D6E4E4}
    .fil1 {fill:#22EA15;fill-rule:nonzero}
    .fil2 {fill:#D6E4E4;fill-rule:nonzero}
   ]]>
  </style>
 </defs>
 <g id="Capa_x0020_1">
  <metadata id="CorelCorpID_0Corel-Layer"/>
  <g id="_2385371458848">
   <rect class="fil0 str0" x="10" y="10" width="13229.18" height="5732.63"/>
   <polygon class="fil1" points="10193.63,4443.25 9982.73,4443.25 9982.73,5046.77 9815.79,5046.77 9815.79,4443.25 9606.12,4443.25 9606.12,4307.8 10193.63,4307.8 "/>
   <polygon id="1" class="fil1" points="10736.3,5046.77 10293.02,5046.77 10293.02,4307.8 10719.24,4307.8 10719.24,4443.25 10459.6,4443.25 10459.6,4607.72 10701.3,4607.72 10701.3,4742.63 10459.6,4742.63 10459.6,4911.68 10736.3,4911.68 "/>
   <path id="2" class="fil1" d="M11384.5 5020.56c-53.82,26.03 -124.36,39.05 -211.26,39.05 -113.28,0 -202.46,-33.24 -267.37,-99.91 -65.08,-66.67 -97.45,-155.5 -97.45,-266.5 0,-118.2 36.41,-214.07 109.41,-287.6 73,-73.53 167.81,-110.29 284.26,-110.29 72.12,0 132.99,9.15 182.41,27.44l0 160.25c-49.42,-29.55 -105.71,-44.33 -169.04,-44.33 -69.3,0 -125.42,21.81 -167.99,65.44 -42.56,43.62 -63.85,102.73 -63.85,177.31 0,71.42 20.05,128.41 60.34,170.8 40.1,42.39 94.28,63.68 162.35,63.68 64.91,0 124.37,-15.83 178.19,-47.5l0 152.16z"/>
   <polygon id="3" class="fil1" points="12152.85,5046.77 11985.92,5046.77 11985.92,4745.8 11679.84,4745.8 11679.84,5046.77 11513.26,5046.77 11513.26,4307.8 11679.84,4307.8 11679.84,4602.61 11985.92,4602.61 11985.92,4307.8 12152.85,4307.8 "/>
   <path class="fil2" d="M1098.49 3847.96l14.57 -581.56c6.4,-255.3 52.16,-686.74 754.2,-686.74l485.73 0c22.17,0 40.57,8.8 55.37,26.7 14.76,17.9 22.16,38.4 22.16,61.84l0 1191.1c0,24.73 -8.33,45.56 -25.26,62.16 -16.9,16.94 -36.9,25.4 -60.27,25.4l-169.5 0c-24.57,0 -44.9,-8.46 -60.57,-25.4 -16.03,-16.6 -24.03,-38.1 -24.03,-64.13l0 -240.57 -638.27 0 -5.03 229.9c-0.57,26.8 -19.7,47.24 -40.9,64.1 -20.87,16.64 -43.07,25.1 -66.77,25.1l-177.76 0c-23.34,0 -41.07,-8.6 -53.2,-25.73 -8.14,-11.5 -12.8,-24.47 -12.64,-39.07 0.07,-7.13 1.97,-14.56 2.17,-23.1zm359.93 -504.43l629.04 3.7 0 -498.03 -273.3 0c-223.87,0 -359.97,181.8 -358.37,298.63l2.63 195.7z"/>
   <path class="fil2" d="M2632.17 3864.04l0 -1199.77c0,-25 8.39,-46.39 24.87,-64.48 16.47,-18.09 36.68,-26.97 60.62,-26.97l270.14 0c21.45,0 43.82,8.88 67.76,26.97 23.93,18.09 43.52,39.48 58.75,64.48l554.89 895.14 0 -897.11c0,-25.01 8.08,-46.06 23.94,-63.5 16.17,-17.43 35.75,-25.98 58.44,-25.98l150.46 0c23.01,0 42.27,8.55 58.44,25.98 15.86,17.44 23.94,39.15 23.94,65.47l0 1199.77c0,25 -8.08,46.39 -24.56,63.82 -16.47,17.77 -36.37,26.65 -59.68,26.65l-298.12 0c-23.32,0 -47.25,-8.88 -71.81,-26.65 -24.56,-17.43 -44.15,-38.82 -58.44,-63.82l-496.45 -826.71 0 826.71c0,25 -8.7,46.39 -25.81,63.82 -17.4,17.77 -38.23,26.65 -62.48,26.65l-165.68 0c-24.25,0 -45.4,-8.88 -62.8,-26.65 -17.72,-17.43 -26.42,-38.82 -26.42,-63.82z"/>
   <path class="fil2" d="M4175.2 3864.04l0 -1199.77c0,-25 8.39,-46.39 24.87,-64.48 16.47,-18.09 36.68,-26.97 60.62,-26.97l270.14 0c21.45,0 43.82,8.88 67.76,26.97 23.94,18.09 43.52,39.48 58.76,64.48l554.89 895.14 0 -897.11c0,-25.01 8.08,-46.06 23.93,-63.5 16.17,-17.43 35.75,-25.98 58.45,-25.98l150.45 0c23.01,0 42.28,8.55 58.44,25.98 15.86,17.44 23.94,39.15 23.94,65.47l0 1199.77c0,25 -8.08,46.39 -24.56,63.82 -16.47,17.77 -36.37,26.65 -59.68,26.65l-298.12 0c-23.31,0 -47.25,-8.88 -71.81,-26.65 -24.56,-17.43 -44.15,-38.82 -58.44,-63.82l-496.45 -826.71 0 826.71c0,25 -8.7,46.39 -25.8,63.82 -17.41,17.77 -38.24,26.65 -62.48,26.65l-165.69 0c-24.25,0 -45.39,-8.88 -62.8,-26.65 -17.72,-17.43 -26.42,-38.82 -26.42,-63.82z"/>
   <path class="fil2" d="M5725.56 3866.02l0 -1201.75c0,-25 8.4,-46.39 25.5,-64.48 17.09,-18.09 37.3,-26.97 60.92,-26.97l169.43 0c24.86,0 45.7,8.88 62.17,26.97 16.79,18.09 25.18,39.48 25.18,64.48l0 1199.77c0,25 -8.7,46.39 -25.81,63.82 -17.4,17.77 -37.92,26.65 -61.54,26.65l-169.43 0c-23.62,0 -43.83,-8.55 -60.92,-25.66 -17.1,-16.78 -25.5,-37.83 -25.5,-62.83z"/>
   <path class="fil2" d="M6277.8 3866.02l0 -1199.78c0,-26.31 8.39,-48.36 25.49,-66.45 17.1,-18.09 37.3,-26.97 60.92,-26.97l509.2 0c263.3,0 455.1,55.59 574.78,167.11 119.99,111.2 180,286.21 180,524.06 0,238.18 -60.01,412.87 -180,524.06 -119.68,110.86 -311.48,166.46 -574.78,166.46l-509.2 0c-23.62,0 -43.82,-8.55 -60.92,-25.66 -17.1,-16.78 -25.49,-37.83 -25.49,-62.83zm343.19 -183.9l242.16 0c162.89,0 273.87,-31.58 332.93,-94.42 59.38,-63.16 88.91,-170.74 88.91,-323.71 0,-152.64 -29.53,-260.55 -88.28,-323.71 -59.07,-63.49 -170.05,-95.07 -333.56,-95.07l-242.16 0 0 836.91z"/>
   <path class="fil2" d="M9324.29 3866.02l0 -1199.78c0,-26.31 8.4,-48.36 25.5,-66.45 17.09,-18.09 37.3,-26.97 60.92,-26.97l509.2 0c263.3,0 455.1,55.59 574.78,167.11 119.99,111.2 179.99,286.21 179.99,524.06 0,238.18 -60,412.87 -179.99,524.06 -119.68,110.86 -311.48,166.46 -574.78,166.46l-509.2 0c-23.62,0 -43.83,-8.55 -60.92,-25.66 -17.1,-16.78 -25.5,-37.83 -25.5,-62.83zm343.2 -183.9l242.16 0c162.89,0 273.87,-31.58 332.93,-94.42 59.38,-63.16 88.91,-170.74 88.91,-323.71 0,-152.64 -29.53,-260.55 -88.29,-323.71 -59.06,-63.49 -170.04,-95.07 -333.55,-95.07l-242.16 0 0 836.91z"/>
   <path class="fil2" d="M7779.28 3847.96l14.57 -581.56c6.4,-255.3 52.17,-686.74 754.2,-686.74l485.73 0c22.17,0 40.57,8.8 55.37,26.7 14.77,17.9 22.17,38.4 22.17,61.84l0 1191.1c0,24.73 -8.34,45.56 -25.27,62.16 -16.9,16.94 -36.9,25.4 -60.27,25.4l-169.5 0c-24.56,0 -44.9,-8.46 -60.56,-25.4 -16.04,-16.6 -24.04,-38.1 -24.04,-64.13l0 -240.57 -638.26 0 -5.04 229.9c-0.56,26.8 -19.7,47.24 -40.9,64.1 -20.86,16.64 -43.06,25.1 -66.76,25.1l-177.77 0c-23.33,0 -41.07,-8.6 -53.2,-25.73 -8.13,-11.5 -12.8,-24.47 -12.63,-39.07 0.06,-7.13 1.96,-14.56 2.16,-23.1zm359.94 -504.43l629.03 3.7 0 -498.03 -273.3 0c-223.87,0 -359.97,181.8 -358.37,298.63l2.64 195.7z"/>
   <path class="fil2" d="M10800.01 3847.96l14.57 -581.56c6.4,-255.3 52.17,-686.74 754.2,-686.74l485.73 0c22.17,0 40.57,8.8 55.37,26.7 14.77,17.9 22.17,38.4 22.17,61.84l0 1191.1c0,24.73 -8.34,45.56 -25.27,62.16 -16.9,16.94 -36.9,25.4 -60.27,25.4l-169.5 0c-24.56,0 -44.9,-8.46 -60.56,-25.4 -16.04,-16.6 -24.04,-38.1 -24.04,-64.13l0 -240.57 -638.26 0 -5.04 229.9c-0.56,26.8 -19.7,47.24 -40.9,64.1 -20.86,16.64 -43.06,25.1 -66.76,25.1l-177.77 0c-23.33,0 -41.07,-8.6 -53.2,-25.73 -8.13,-11.5 -12.8,-24.47 -12.63,-39.07 0.06,-7.13 1.96,-14.56 2.16,-23.1zm359.94 -504.43l629.03 3.7 0 -498.03 -273.3 0c-223.87,0 -359.97,181.8 -358.37,298.63l2.64 195.7z"/>
   <rect class="fil3" x="5719.61" y="1934.81" width="310.44" height="310.43"/>
   <rect class="fil4" x="6227.35" y="1624.34" width="310.44" height="620.89"/>
   <rect class="fil5" x="6738.91" y="1313.89" width="310.44" height="931.32"/>
   <rect class="fil6" x="7248.65" y="1003.46" width="310.44" height="1241.75"/>
   <rect class="fil7" x="7755.74" y="692.99" width="310.44" height="1552.22"/>
   <circle class="fil8" cx="6905.28" cy="1035" r="155.22"/>
  </g>
 </g>
</svg>
