<?xml version="1.0" encoding="UTF-8"?>
<!DOCTYPE svg PUBLIC "-//W3C//DTD SVG 1.1//EN" "http://www.w3.org/Graphics/SVG/1.1/DTD/svg11.dtd">
<!-- Creator: CorelDRAW 2020 (64-Bit) -->
<svg xmlns="http://www.w3.org/2000/svg" xml:space="preserve" width="100%" height="100%" version="1.1" style="shape-rendering:geometricPrecision; text-rendering:geometricPrecision; image-rendering:optimizeQuality; fill-rule:evenodd; clip-rule:evenodd"
viewBox="0 0 13249.16 5752.62"
 xmlns:xlink="http://www.w3.org/1999/xlink"
 xmlns:xodm="http://www.corel.com/coreldraw/odm/2003">
 <defs>
  <style type="text/css">
   <![CDATA[
    .str0 {stroke:#373435;stroke-width:20;stroke-miterlimit:22.9256}
    .fil0 {fill:#253141}
    .fil1 {fill:#22EA15;fill-rule:nonzero}
    .fil2 {fill:#D6E4E4;fill-rule:nonzero}
   ]]>
  </style>
 </defs>
 <g id="Capa_x0020_1">
  <metadata id="CorelCorpID_0Corel-Layer"/>
  <g id="_2385371578896">
   <rect class="fil0 str0" x="10" y="10" width="13229.16" height="5732.62"/>
   <polygon class="fil1" points="10193.63,4443.24 9982.72,4443.24 9982.72,5046.77 9815.79,5046.77 9815.79,4443.24 9606.11,4443.24 9606.11,4307.79 10193.63,4307.79 "/>
   <polygon id="1" class="fil1" points="10736.29,5046.77 10293.01,5046.77 10293.01,4307.79 10719.23,4307.79 10719.23,4443.24 10459.6,4443.24 10459.6,4607.71 10701.29,4607.71 10701.29,4742.63 10459.6,4742.63 10459.6,4911.67 10736.29,4911.67 "/>
   <path id="2" class="fil1" d="M11384.5 5020.56c-53.83,26.03 -124.36,39.05 -211.26,39.05 -113.28,0 -202.47,-33.24 -267.38,-99.91 -65.08,-66.67 -97.45,-155.5 -97.45,-266.5 0,-118.21 36.41,-214.08 109.41,-287.6 73,-73.53 167.82,-110.3 284.27,-110.3 72.12,0 132.98,9.15 182.41,27.45l0 160.24c-49.43,-29.55 -105.72,-44.32 -169.04,-44.32 -69.31,0 -125.42,21.81 -167.99,65.43 -42.57,43.63 -63.86,102.73 -63.86,177.32 0,71.41 20.06,128.41 60.34,170.8 40.1,42.39 94.28,63.68 162.36,63.68 64.91,0 124.36,-15.83 178.19,-47.5l0 152.16z"/>
   <polygon id="3" class="fil1" points="12152.85,5046.77 11985.92,5046.77 11985.92,4745.8 11679.85,4745.8 11679.85,5046.77 11513.26,5046.77 11513.26,4307.79 11679.85,4307.79 11679.85,4602.61 11985.92,4602.61 11985.92,4307.79 12152.85,4307.79 "/>
   <path class="fil2" d="M1098.49 3847.96l14.57 -581.56c6.4,-255.3 52.17,-686.73 754.2,-686.73l485.73 0c22.17,0 40.57,8.8 55.37,26.7 14.76,17.9 22.16,38.4 22.16,61.83l0 1191.1c0,24.73 -8.33,45.56 -25.26,62.16 -16.9,16.94 -36.9,25.4 -60.27,25.4l-169.5 0c-24.57,0 -44.9,-8.46 -60.57,-25.4 -16.03,-16.6 -24.03,-38.1 -24.03,-64.13l0 -240.57 -638.26 0 -5.04 229.9c-0.56,26.8 -19.7,47.24 -40.9,64.1 -20.86,16.64 -43.06,25.1 -66.76,25.1l-177.77 0c-23.33,0 -41.07,-8.6 -53.2,-25.73 -8.13,-11.5 -12.8,-24.47 -12.63,-39.07 0.06,-7.13 1.96,-14.56 2.16,-23.1zm359.93 -504.43l629.04 3.7 0 -498.03 -273.3 0c-223.87,0 -359.97,181.8 -358.37,298.63l2.63 195.7z"/>
   <path class="fil2" d="M2632.17 3864.04l0 -1199.78c0,-25 8.39,-46.38 24.87,-64.48 16.47,-18.09 36.68,-26.97 60.62,-26.97l270.14 0c21.45,0 43.83,8.88 67.77,26.97 23.93,18.1 43.51,39.48 58.75,64.48l554.89 895.15 0 -897.12c0,-25 8.08,-46.06 23.94,-63.49 16.16,-17.44 35.75,-25.99 58.44,-25.99l150.46 0c23,0 42.28,8.55 58.44,25.99 15.86,17.43 23.94,39.15 23.94,65.46l0 1199.78c0,25 -8.08,46.39 -24.56,63.82 -16.48,17.77 -36.37,26.65 -59.68,26.65l-298.12 0c-23.32,0 -47.26,-8.88 -71.82,-26.65 -24.56,-17.43 -44.14,-38.82 -58.43,-63.82l-496.46 -826.72 0 826.72c0,25 -8.7,46.39 -25.8,63.82 -17.41,17.77 -38.24,26.65 -62.48,26.65l-165.69 0c-24.25,0 -45.39,-8.88 -62.8,-26.65 -17.72,-17.43 -26.42,-38.82 -26.42,-63.82z"/>
   <path class="fil2" d="M4175.2 3864.04l0 -1199.78c0,-25 8.39,-46.38 24.87,-64.48 16.47,-18.09 36.68,-26.97 60.62,-26.97l270.14 0c21.45,0 43.83,8.88 67.77,26.97 23.93,18.1 43.51,39.48 58.75,64.48l554.89 895.15 0 -897.12c0,-25 8.08,-46.06 23.94,-63.49 16.16,-17.44 35.75,-25.99 58.44,-25.99l150.46 0c23,0 42.27,8.55 58.44,25.99 15.86,17.43 23.94,39.15 23.94,65.46l0 1199.78c0,25 -8.08,46.39 -24.56,63.82 -16.48,17.77 -36.37,26.65 -59.68,26.65l-298.12 0c-23.32,0 -47.26,-8.88 -71.82,-26.65 -24.56,-17.43 -44.14,-38.82 -58.43,-63.82l-496.46 -826.72 0 826.72c0,25 -8.7,46.39 -25.8,63.82 -17.41,17.77 -38.24,26.65 -62.48,26.65l-165.69 0c-24.25,0 -45.39,-8.88 -62.8,-26.65 -17.72,-17.43 -26.42,-38.82 -26.42,-63.82z"/>
   <path class="fil2" d="M5725.56 3866.02l0 -1201.76c0,-25 8.39,-46.38 25.5,-64.48 17.09,-18.09 37.29,-26.97 60.93,-26.97l169.41 0c24.88,0 45.7,8.88 62.17,26.97 16.79,18.1 25.18,39.48 25.18,64.48l0 1199.78c0,25 -8.7,46.39 -25.79,63.82 -17.42,17.77 -37.93,26.65 -61.56,26.65l-169.41 0c-23.64,0 -43.84,-8.55 -60.93,-25.66 -17.11,-16.78 -25.5,-37.83 -25.5,-62.83z"/>
   <path class="fil2" d="M6277.79 3866.02l0 -1199.78c0,-26.32 8.39,-48.36 25.5,-66.46 17.09,-18.09 37.29,-26.97 60.93,-26.97l509.19 0c263.3,0 455.1,55.6 574.79,167.12 119.99,111.19 179.98,286.21 179.98,524.06 0,238.18 -59.99,412.86 -179.98,524.06 -119.69,110.86 -311.49,166.46 -574.79,166.46l-509.19 0c-23.64,0 -43.84,-8.55 -60.93,-25.66 -17.11,-16.78 -25.5,-37.83 -25.5,-62.83zm343.2 -183.9l242.16 0c162.9,0 273.87,-31.58 332.94,-94.42 59.37,-63.16 88.9,-170.74 88.9,-323.71 0,-152.65 -29.53,-260.55 -88.28,-323.72 -59.07,-63.49 -170.04,-95.07 -333.56,-95.07l-242.16 0 0 836.92z"/>
   <path class="fil2" d="M9324.29 3866.02l0 -1199.78c0,-26.32 8.39,-48.36 25.49,-66.46 17.09,-18.09 37.3,-26.97 60.93,-26.97l509.19 0c263.3,0 455.11,55.6 574.79,167.12 119.99,111.19 179.99,286.21 179.99,524.06 0,238.18 -60,412.86 -179.99,524.06 -119.68,110.86 -311.49,166.46 -574.79,166.46l-509.19 0c-23.63,0 -43.84,-8.55 -60.93,-25.66 -17.1,-16.78 -25.49,-37.83 -25.49,-62.83zm343.19 -183.9l242.16 0c162.9,0 273.87,-31.58 332.94,-94.42 59.37,-63.16 88.9,-170.74 88.9,-323.71 0,-152.65 -29.53,-260.55 -88.27,-323.72 -59.07,-63.49 -170.05,-95.07 -333.57,-95.07l-242.16 0 0 836.92z"/>
   <path class="fil2" d="M7779.28 3847.96l14.56 -581.56c6.4,-255.3 52.17,-686.73 754.2,-686.73l485.73 0c22.17,0 40.57,8.8 55.37,26.7 14.77,17.9 22.17,38.4 22.17,61.83l0 1191.1c0,24.73 -8.34,45.56 -25.27,62.16 -16.9,16.94 -36.9,25.4 -60.27,25.4l-169.5 0c-24.56,0 -44.89,-8.46 -60.56,-25.4 -16.03,-16.6 -24.03,-38.1 -24.03,-64.13l0 -240.57 -638.27 0 -5.03 229.9c-0.57,26.8 -19.7,47.24 -40.9,64.1 -20.87,16.64 -43.07,25.1 -66.77,25.1l-177.77 0c-23.33,0 -41.06,-8.6 -53.2,-25.73 -8.13,-11.5 -12.8,-24.47 -12.63,-39.07 0.07,-7.13 1.97,-14.56 2.17,-23.1zm359.93 -504.43l629.03 3.7 0 -498.03 -273.3 0c-223.86,0 -359.96,181.8 -358.36,298.63l2.63 195.7z"/>
   <path class="fil2" d="M10800 3847.96l14.57 -581.56c6.4,-255.3 52.17,-686.73 754.2,-686.73l485.73 0c22.17,0 40.57,8.8 55.37,26.7 14.76,17.9 22.16,38.4 22.16,61.83l0 1191.1c0,24.73 -8.33,45.56 -25.26,62.16 -16.9,16.94 -36.9,25.4 -60.27,25.4l-169.5 0c-24.57,0 -44.9,-8.46 -60.57,-25.4 -16.03,-16.6 -24.03,-38.1 -24.03,-64.13l0 -240.57 -638.26 0 -5.04 229.9c-0.56,26.8 -19.7,47.24 -40.9,64.1 -20.86,16.64 -43.06,25.1 -66.76,25.1l-177.77 0c-23.33,0 -41.07,-8.6 -53.2,-25.73 -8.13,-11.5 -12.8,-24.47 -12.63,-39.07 0.06,-7.13 1.96,-14.56 2.16,-23.1zm359.94 -504.43l629.03 3.7 0 -498.03 -273.3 0c-223.87,0 -359.97,181.8 -358.37,298.63l2.64 195.7z"/>
  </g>
 </g>
</svg>
