<?xml version="1.0" encoding="UTF-8"?>
<!DOCTYPE svg PUBLIC "-//W3C//DTD SVG 1.1//EN" "http://www.w3.org/Graphics/SVG/1.1/DTD/svg11.dtd">
<!-- Creator: CorelDRAW 2020 (64-Bit) -->
<svg xmlns="http://www.w3.org/2000/svg" xml:space="preserve" width="100%" height="100%" version="1.1" style="shape-rendering:geometricPrecision; text-rendering:geometricPrecision; image-rendering:optimizeQuality; fill-rule:evenodd; clip-rule:evenodd"
viewBox="0 0 13229.16 5732.62"
 xmlns:xlink="http://www.w3.org/1999/xlink"
 xmlns:xodm="http://www.corel.com/coreldraw/odm/2003">
 <defs>
  <style type="text/css">
   <![CDATA[
    .fil0 {fill:none}
    .fil5 {fill:#FFF212}
    .fil4 {fill:#ED3237}
    .fil6 {fill:#00AFEF}
    .fil7 {fill:#00A859}
    .fil8 {fill:#22EA15}
    .fil3 {fill:#253141}
    .fil1 {fill:#22EA15;fill-rule:nonzero}
    .fil2 {fill:#253141;fill-rule:nonzero}
   ]]>
  </style>
 </defs>
 <g id="Capa_x0020_1">
  <metadata id="CorelCorpID_0Corel-Layer"/>
  <g id="_2385375518384">
   <rect class="fil0" x="0" y="0" width="13229.16" height="5732.62"/>
   <polygon class="fil1" points="10183.63,4433.24 9972.72,4433.24 9972.72,5036.77 9805.79,5036.77 9805.79,4433.24 9596.11,4433.24 9596.11,4297.79 10183.63,4297.79 "/>
   <polygon id="1" class="fil1" points="10726.29,5036.77 10283.01,5036.77 10283.01,4297.79 10709.23,4297.79 10709.23,4433.24 10449.6,4433.24 10449.6,4597.71 10691.29,4597.71 10691.29,4732.63 10449.6,4732.63 10449.6,4901.67 10726.29,4901.67 "/>
   <path id="2" class="fil1" d="M11374.5 5010.56c-53.83,26.03 -124.36,39.05 -211.26,39.05 -113.28,0 -202.47,-33.24 -267.38,-99.91 -65.08,-66.67 -97.45,-155.5 -97.45,-266.5 0,-118.21 36.41,-214.08 109.41,-287.6 73,-73.53 167.82,-110.3 284.27,-110.3 72.12,0 132.98,9.15 182.41,27.45l0 160.24c-49.43,-29.55 -105.72,-44.32 -169.04,-44.32 -69.31,0 -125.42,21.81 -167.99,65.43 -42.57,43.63 -63.86,102.73 -63.86,177.32 0,71.41 20.06,128.41 60.34,170.8 40.1,42.39 94.28,63.68 162.36,63.68 64.91,0 124.36,-15.83 178.19,-47.5l0 152.16z"/>
   <polygon id="3" class="fil1" points="12142.85,5036.77 11975.92,5036.77 11975.92,4735.8 11669.85,4735.8 11669.85,5036.77 11503.26,5036.77 11503.26,4297.79 11669.85,4297.79 11669.85,4592.61 11975.92,4592.61 11975.92,4297.79 12142.85,4297.79 "/>
   <g>
    <path class="fil2" d="M1088.49 3837.96l14.57 -581.56c6.4,-255.3 52.17,-686.74 754.2,-686.74l485.73 0c22.17,0 40.57,8.8 55.37,26.7 14.76,17.9 22.16,38.4 22.16,61.84l0 1191.09c0,24.74 -8.33,45.57 -25.26,62.17 -16.9,16.93 -36.9,25.4 -60.27,25.4l-169.5 0c-24.57,0 -44.9,-8.47 -60.57,-25.4 -16.03,-16.6 -24.03,-38.1 -24.03,-64.13l0 -240.57 -638.27 0 -5.03 229.9c-0.57,26.8 -19.7,47.23 -40.9,64.1 -20.86,16.63 -43.06,25.1 -66.76,25.1l-177.77 0c-23.33,0 -41.07,-8.6 -53.2,-25.73 -8.13,-11.5 -12.8,-24.47 -12.63,-39.07 0.06,-7.13 1.96,-14.57 2.16,-23.1zm359.93 -504.43l629.04 3.7 0 -498.03 -273.3 0c-223.87,0 -359.97,181.8 -358.37,298.63l2.63 195.7z"/>
    <path class="fil3" d="M2622.16 3854.03l0 -1199.8c0,-25 8.43,-46.37 24.9,-64.47 16.46,-18.1 36.66,-26.96 60.6,-26.96l270.16 0c21.43,0 43.8,8.86 67.73,26.96 23.94,18.1 43.54,39.47 58.77,64.47l554.9 895.17 0 -897.14c0,-25 8.07,-46.03 23.93,-63.5 16.14,-17.43 35.74,-25.96 58.47,-25.96l150.43 0c23,0 42.3,8.53 58.44,25.96 15.86,17.47 23.96,39.17 23.96,65.47l0 1199.8c0,25 -8.1,46.4 -24.6,63.83 -16.46,17.77 -36.36,26.63 -59.66,26.63l-298.14 0c-23.3,0 -47.23,-8.86 -71.8,-26.63 -24.56,-17.43 -44.13,-38.83 -58.43,-63.83l-496.47 -826.73 0 826.73c0,25 -8.66,46.4 -25.8,63.83 -17.4,17.77 -38.23,26.63 -62.46,26.63l-165.7 0c-24.23,0 -45.37,-8.86 -62.8,-26.63 -17.73,-17.43 -26.43,-38.83 -26.43,-63.83z"/>
    <path class="fil3" d="M4165.19 3854.03l0 -1199.8c0,-25 8.43,-46.37 24.9,-64.47 16.46,-18.1 36.66,-26.96 60.6,-26.96l270.16 0c21.43,0 43.8,8.86 67.73,26.96 23.94,18.1 43.54,39.47 58.77,64.47l554.9 895.17 0 -897.14c0,-25 8.07,-46.03 23.93,-63.5 16.14,-17.43 35.74,-25.96 58.47,-25.96l150.43 0c23,0 42.3,8.53 58.44,25.96 15.86,17.47 23.96,39.17 23.96,65.47l0 1199.8c0,25 -8.1,46.4 -24.6,63.83 -16.46,17.77 -36.36,26.63 -59.66,26.63l-298.14 0c-23.3,0 -47.23,-8.86 -71.8,-26.63 -24.56,-17.43 -44.13,-38.83 -58.43,-63.83l-496.47 -826.73 0 826.73c0,25 -8.66,46.4 -25.8,63.83 -17.4,17.77 -38.23,26.63 -62.46,26.63l-165.7 0c-24.23,0 -45.37,-8.86 -62.8,-26.63 -17.73,-17.43 -26.43,-38.83 -26.43,-63.83z"/>
    <path class="fil3" d="M5715.55 3855.99l0 -1201.76c0,-25 8.43,-46.37 25.5,-64.47 17.1,-18.1 37.3,-26.96 60.93,-26.96l169.43 0c24.87,0 45.67,8.86 62.14,26.96 16.8,18.1 25.2,39.47 25.2,64.47l0 1199.8c0,25 -8.67,46.4 -25.8,63.83 -17.4,17.77 -37.9,26.63 -61.54,26.63l-169.43 0c-23.63,0 -43.83,-8.56 -60.93,-25.66 -17.07,-16.77 -25.5,-37.84 -25.5,-62.84z"/>
    <path class="fil3" d="M6267.78 3855.99l0 -1199.76c0,-26.33 8.43,-48.37 25.5,-66.47 17.1,-18.1 37.3,-26.96 60.93,-26.96l509.2 0c263.3,0 455.1,55.6 574.77,167.1 120.03,111.2 180.03,286.23 180.03,524.06 0,238.2 -60,412.87 -180.03,524.07 -119.67,110.86 -311.47,166.46 -574.77,166.46l-509.2 0c-23.63,0 -43.83,-8.56 -60.93,-25.66 -17.07,-16.77 -25.5,-37.84 -25.5,-62.84zm343.2 -183.9l242.17 0c162.9,0 273.86,-31.56 332.93,-94.39 59.37,-63.17 88.93,-170.74 88.93,-323.74 0,-152.63 -29.56,-260.53 -88.3,-323.7 -59.06,-63.5 -170.06,-95.06 -333.56,-95.06l-242.17 0 0 836.89z"/>
    <path class="fil3" d="M9314.27 3855.99l0 -1199.76c0,-26.33 8.44,-48.37 25.5,-66.47 17.1,-18.1 37.3,-26.96 60.94,-26.96l509.2 0c263.3,0 455.09,55.6 574.76,167.1 120.03,111.2 180.03,286.23 180.03,524.06 0,238.2 -60,412.87 -180.03,524.07 -119.67,110.86 -311.46,166.46 -574.76,166.46l-509.2 0c-23.64,0 -43.84,-8.56 -60.94,-25.66 -17.06,-16.77 -25.5,-37.84 -25.5,-62.84zm343.2 -183.9l242.17 0c162.9,0 273.87,-31.56 332.93,-94.39 59.37,-63.17 88.94,-170.74 88.94,-323.74 0,-152.63 -29.57,-260.53 -88.3,-323.7 -59.07,-63.5 -170.07,-95.06 -333.57,-95.06l-242.17 0 0 836.89z"/>
    <path class="fil2" d="M7769.28 3837.96l14.56 -581.56c6.4,-255.3 52.17,-686.74 754.2,-686.74l485.73 0c22.17,0 40.57,8.8 55.37,26.7 14.77,17.9 22.17,38.4 22.17,61.84l0 1191.09c0,24.74 -8.34,45.57 -25.27,62.17 -16.9,16.93 -36.9,25.4 -60.27,25.4l-169.5 0c-24.56,0 -44.89,-8.47 -60.56,-25.4 -16.03,-16.6 -24.03,-38.1 -24.03,-64.13l0 -240.57 -638.27 0 -5.03 229.9c-0.57,26.8 -19.7,47.23 -40.9,64.1 -20.87,16.63 -43.07,25.1 -66.77,25.1l-177.77 0c-23.33,0 -41.06,-8.6 -53.2,-25.73 -8.13,-11.5 -12.8,-24.47 -12.63,-39.07 0.07,-7.13 1.97,-14.57 2.17,-23.1zm359.93 -504.43l629.03 3.7 0 -498.03 -273.3 0c-223.86,0 -359.96,181.8 -358.36,298.63l2.63 195.7z"/>
    <path class="fil2" d="M10790 3837.96l14.57 -581.56c6.4,-255.3 52.17,-686.74 754.2,-686.74l485.73 0c22.17,0 40.57,8.8 55.37,26.7 14.76,17.9 22.16,38.4 22.16,61.84l0 1191.09c0,24.74 -8.33,45.57 -25.26,62.17 -16.9,16.93 -36.9,25.4 -60.27,25.4l-169.5 0c-24.57,0 -44.9,-8.47 -60.56,-25.4 -16.04,-16.6 -24.04,-38.1 -24.04,-64.13l0 -240.57 -638.26 0 -5.04 229.9c-0.56,26.8 -19.7,47.23 -40.9,64.1 -20.86,16.63 -43.06,25.1 -66.76,25.1l-177.77 0c-23.33,0 -41.07,-8.6 -53.2,-25.73 -8.13,-11.5 -12.8,-24.47 -12.63,-39.07 0.06,-7.13 1.96,-14.57 2.16,-23.1zm359.94 -504.43l629.03 3.7 0 -498.03 -273.3 0c-223.87,0 -359.97,181.8 -358.37,298.63l2.64 195.7z"/>
   </g>
   <rect class="fil3" x="5709.61" y="1924.81" width="310.44" height="310.43"/>
   <rect class="fil4" x="6217.34" y="1614.34" width="310.44" height="620.89"/>
   <rect class="fil5" x="6728.91" y="1303.89" width="310.44" height="931.32"/>
   <rect class="fil6" x="7238.64" y="993.47" width="310.44" height="1241.75"/>
   <rect class="fil7" x="7745.74" y="683" width="310.44" height="1552.22"/>
   <circle class="fil8" cx="6895.28" cy="1025" r="155.22"/>
  </g>
 </g>
</svg>
