<?xml version="1.0" encoding="UTF-8"?>
<!DOCTYPE svg PUBLIC "-//W3C//DTD SVG 1.1//EN" "http://www.w3.org/Graphics/SVG/1.1/DTD/svg11.dtd">
<!-- Creator: CorelDRAW 2020 (64-Bit) -->
<svg xmlns="http://www.w3.org/2000/svg" xml:space="preserve" width="114.332mm" height="37.1533mm" version="1.1" style="shape-rendering:geometricPrecision; text-rendering:geometricPrecision; image-rendering:optimizeQuality; fill-rule:evenodd; clip-rule:evenodd"
viewBox="0 0 2775.94 902.07"
 xmlns:xlink="http://www.w3.org/1999/xlink"
 xmlns:xodm="http://www.corel.com/coreldraw/odm/2003">
 <defs>
  <style type="text/css">
   <![CDATA[
    .str1 {stroke:#373435;stroke-width:4.86;stroke-miterlimit:22.9256}
    .str0 {stroke:#8B0371;stroke-width:4.86;stroke-miterlimit:22.9256}
    .fil2 {fill:#FEFEFE}
    .fil0 {fill:#8B0371}
    .fil1 {fill:#FEFEFE;fill-rule:nonzero}
   ]]>
  </style>
   <mask id="id0">
  <linearGradient id="id1" gradientUnits="userSpaceOnUse" x1="1407.35" y1="664.9" x2="1411.63" y2="-594.2">
   <stop offset="0" style="stop-opacity:1; stop-color:white"/>
   <stop offset="0.301961" style="stop-opacity:0.501961; stop-color:white"/>
   <stop offset="1" style="stop-opacity:0; stop-color:white"/>
  </linearGradient>
    <rect style="fill:url(#id1)" y="336.79" width="2775.94" height="565.28"/>
   </mask>
 </defs>
 <g id="Capa_x0020_1">
  <metadata id="CorelCorpID_0Corel-Layer"/>
  <polygon class="fil0 str0" style="mask:url(#id0)" points="1872.73,342.69 2773.51,339.22 2773.51,569.69 1872.73,569.69 1872.73,899.64 903.21,899.64 903.21,569.69 2.43,569.69 2.43,342.69 "/>
  <path class="fil1" d="M87.81 477.02c-1.72,0 -3.44,-0.03 -5.11,-0.08 -1.69,-0.05 -3.25,-0.16 -4.73,-0.32l0 41.22 -19.36 0 0 -105.34 30.43 0c5.08,0 9.55,0.22 13.36,0.67 3.79,0.43 7.21,1.1 10.19,1.99 7.21,2.2 12.74,5.73 16.64,10.57 3.9,4.81 5.83,10.95 5.83,18.42 0,5.08 -1.05,9.65 -3.15,13.71 -2.1,4.09 -5.19,7.53 -9.22,10.35 -4.03,2.85 -8.98,5.03 -14.82,6.53 -5.83,1.53 -12.53,2.29 -20.08,2.29zm-9.84 -16.62c1.1,0.16 2.5,0.3 4.19,0.38 1.72,0.08 3.5,0.11 5.32,0.11 5.19,0 9.54,-0.43 13.04,-1.26 3.52,-0.84 6.34,-1.99 8.5,-3.5 2.15,-1.51 3.69,-3.31 4.63,-5.43 0.94,-2.12 1.43,-4.44 1.43,-6.96 0,-3.09 -0.7,-5.78 -2.12,-8.04 -1.43,-2.26 -3.87,-4.01 -7.39,-5.27 -1.83,-0.62 -4.09,-1.08 -6.8,-1.37 -2.69,-0.3 -5.99,-0.43 -9.92,-0.43l-10.86 0 0 31.78z"/>
  <path id="1" class="fil1" d="M199.55 479.69c0,-4.03 -0.48,-7.61 -1.43,-10.7 -0.94,-3.09 -2.23,-5.67 -3.92,-7.77 -1.67,-2.1 -3.68,-3.68 -6.05,-4.73 -2.37,-1.05 -4.95,-1.56 -7.72,-1.56 -2.72,0 -5.24,0.51 -7.58,1.56 -2.34,1.05 -4.36,2.63 -6.02,4.73 -1.67,2.1 -2.98,4.68 -3.92,7.77 -0.94,3.09 -1.43,6.67 -1.43,10.7 0,4.03 0.48,7.61 1.43,10.7 0.94,3.09 2.26,5.67 3.95,7.75 1.72,2.07 3.74,3.63 6.08,4.71 2.31,1.08 4.89,1.61 7.66,1.61 2.77,0 5.32,-0.54 7.64,-1.61 2.31,-1.08 4.3,-2.64 5.97,-4.71 1.69,-2.07 2.98,-4.65 3.92,-7.75 0.94,-3.09 1.43,-6.67 1.43,-10.7zm19.36 0c0,5.99 -0.89,11.46 -2.69,16.37 -1.77,4.95 -4.33,9.17 -7.69,12.69 -3.33,3.52 -7.37,6.24 -12.1,8.15 -4.73,1.91 -10,2.88 -15.84,2.88 -5.99,0 -11.37,-0.97 -16.13,-2.88 -4.76,-1.91 -8.79,-4.62 -12.1,-8.15 -3.31,-3.52 -5.84,-7.74 -7.61,-12.69 -1.75,-4.92 -2.64,-10.38 -2.64,-16.37 0,-6 0.89,-11.46 2.69,-16.37 1.77,-4.95 4.33,-9.17 7.69,-12.69 3.33,-3.52 7.37,-6.24 12.1,-8.15 4.73,-1.91 10,-2.88 15.84,-2.88 5.99,0 11.37,0.97 16.13,2.88 4.76,1.91 8.79,4.62 12.1,8.15 3.31,3.52 5.84,7.74 7.61,12.69 1.75,4.92 2.64,10.38 2.64,16.37z"/>
  <path id="2" class="fil1" d="M285.4 462.24c-1.45,7.61 -3.2,15 -5.19,22.13l-9.22 33.47 -18.36 0 -26.7 -76.31 19.71 0 9.84 31.97c2.26,7.39 4.25,14.57 6,21.51l0.3 0c1.48,-6.72 3.23,-13.9 5.3,-21.51l8.74 -31.97 19.68 0 8.6 31.97c1.83,6.78 3.58,13.93 5.27,21.51l0.32 0c1.77,-7.1 3.76,-14.25 5.97,-21.51l9.84 -31.97 19.71 0 -26.7 76.31 -18.37 0 -9.22 -33.47c-2.1,-7.5 -3.82,-14.87 -5.19,-22.13l-0.32 0z"/>
  <path id="3" class="fil1" d="M395.59 504.77c3.63,0 7.42,-0.35 11.35,-1.08 3.95,-0.73 7.93,-1.77 11.97,-3.12l0 14.82c-2.39,1.05 -6.1,2.04 -11.11,2.98 -4.97,0.94 -10.16,1.4 -15.51,1.4 -5.4,0 -10.54,-0.7 -15.41,-2.1 -4.84,-1.37 -9.09,-3.63 -12.74,-6.72 -3.63,-3.09 -6.51,-7.13 -8.66,-12.05 -2.12,-4.95 -3.2,-10.92 -3.2,-17.96 0,-6.94 1,-12.98 3.01,-18.2 1.99,-5.19 4.68,-9.49 8.04,-12.9 3.36,-3.42 7.21,-5.97 11.56,-7.69 4.33,-1.69 8.82,-2.55 13.44,-2.55 4.84,0 9.3,0.73 13.39,2.2 4.06,1.45 7.61,3.76 10.57,6.91 2.99,3.14 5.3,7.18 6.94,12.13 1.67,4.97 2.5,10.81 2.5,17.59 -0.05,2.61 -0.13,4.84 -0.24,6.67l-50.06 0c0.27,3.55 1.05,6.56 2.37,9.09 1.32,2.5 3.01,4.54 5.16,6.1 2.12,1.56 4.6,2.71 7.42,3.41 2.85,0.73 5.91,1.08 9.22,1.08zm-7.48 -50.65c-2.37,0 -4.46,0.43 -6.32,1.29 -1.83,0.89 -3.42,2.04 -4.76,3.55 -1.34,1.51 -2.39,3.25 -3.17,5.24 -0.81,1.99 -1.32,4.12 -1.59,6.37l30.01 0c0,-2.26 -0.3,-4.38 -0.92,-6.37 -0.59,-1.99 -1.48,-3.74 -2.66,-5.24 -1.18,-1.51 -2.66,-2.66 -4.41,-3.55 -1.77,-0.86 -3.82,-1.29 -6.18,-1.29z"/>
  <path id="4" class="fil1" d="M484.26 456.37l-1.56 0c-5.73,0 -10.76,0.86 -15.08,2.55 -4.36,1.69 -7.69,4.28 -10.06,7.77l0 51.14 -18.71 0 0 -76.31 15.49 0 1.72 10.59 0.32 0c2.2,-3.9 5.24,-6.94 9.09,-9.17 3.87,-2.23 8.5,-3.36 13.93,-3.36 1.88,0 3.49,0.11 4.87,0.32l0 16.45z"/>
  <path id="5" class="fil1" d="M534.7 504.77c3.63,0 7.42,-0.35 11.35,-1.08 3.95,-0.73 7.93,-1.77 11.97,-3.12l0 14.82c-2.39,1.05 -6.1,2.04 -11.11,2.98 -4.97,0.94 -10.16,1.4 -15.51,1.4 -5.4,0 -10.54,-0.7 -15.41,-2.1 -4.84,-1.37 -9.09,-3.63 -12.74,-6.72 -3.63,-3.09 -6.51,-7.13 -8.66,-12.05 -2.12,-4.95 -3.2,-10.92 -3.2,-17.96 0,-6.94 1,-12.98 3.01,-18.2 1.99,-5.19 4.68,-9.49 8.04,-12.9 3.36,-3.42 7.21,-5.97 11.56,-7.69 4.33,-1.69 8.82,-2.55 13.44,-2.55 4.84,0 9.3,0.73 13.39,2.2 4.06,1.45 7.61,3.76 10.57,6.91 2.99,3.14 5.3,7.18 6.94,12.13 1.67,4.97 2.5,10.81 2.5,17.59 -0.05,2.61 -0.13,4.84 -0.24,6.67l-50.06 0c0.27,3.55 1.05,6.56 2.37,9.09 1.32,2.5 3.01,4.54 5.16,6.1 2.12,1.56 4.6,2.71 7.42,3.41 2.85,0.73 5.91,1.08 9.22,1.08zm-7.48 -50.65c-2.37,0 -4.46,0.43 -6.32,1.29 -1.83,0.89 -3.42,2.04 -4.76,3.55 -1.34,1.51 -2.39,3.25 -3.17,5.24 -0.81,1.99 -1.32,4.12 -1.59,6.37l30.01 0c0,-2.26 -0.3,-4.38 -0.92,-6.37 -0.59,-1.99 -1.48,-3.74 -2.66,-5.24 -1.18,-1.51 -2.66,-2.66 -4.41,-3.55 -1.77,-0.86 -3.82,-1.29 -6.18,-1.29z"/>
  <path id="6" class="fil1" d="M610.96 504.93c1.83,0 3.58,-0.24 5.24,-0.7 1.64,-0.49 3.2,-1.13 4.68,-1.91 1.48,-0.81 2.77,-1.67 3.9,-2.61 1.13,-0.97 2.1,-1.88 2.88,-2.77l0 -36.24c-2.2,-1.8 -4.68,-3.28 -7.4,-4.49 -2.74,-1.18 -5.65,-1.77 -8.68,-1.77 -1.94,0 -3.98,0.4 -6.1,1.18 -2.12,0.78 -4.06,2.12 -5.83,4.03 -1.75,1.88 -3.23,4.52 -4.41,7.88 -1.18,3.36 -1.77,7.66 -1.77,12.85 0,7.69 1.48,13.69 4.46,17.99 2.96,4.33 7.31,6.51 13.04,6.56zm-36.86 -23.74c0,-6.67 0.92,-12.64 2.77,-17.85 1.83,-5.22 4.36,-9.6 7.53,-13.15 3.17,-3.55 6.83,-6.18 10.92,-7.96 4.11,-1.75 8.36,-2.63 12.77,-2.63 2.07,0 4.01,0.19 5.86,0.54 1.83,0.38 3.58,0.89 5.19,1.51 1.64,0.65 3.15,1.35 4.57,2.12 1.43,0.81 2.74,1.61 3.95,2.45l0.16 0c-0.05,-1.05 -0.11,-2.53 -0.13,-4.44 -0.03,-1.94 -0.03,-4.01 -0.03,-6.27l0 -31.73 18.71 0 0 91.36c0,5.05 0.05,9.38 0.16,13.01 0.11,3.6 0.21,6.86 0.32,9.68l-16.91 0 -0.78 -8.15 -0.32 0c-1.1,1.32 -2.42,2.61 -3.98,3.87 -1.56,1.24 -3.25,2.34 -5.14,3.25 -1.85,0.92 -3.93,1.64 -6.16,2.18 -2.23,0.51 -4.65,0.78 -7.29,0.78 -4.17,0 -8.15,-0.73 -11.97,-2.2 -3.79,-1.48 -7.21,-3.74 -10.24,-6.8 -3.01,-3.09 -5.43,-7.1 -7.26,-12.07 -1.8,-4.95 -2.72,-10.78 -2.72,-17.5z"/>
  <path id="7" class="fil1" d="M774.56 478.34c0,6.88 -1,12.99 -2.98,18.28 -1.99,5.3 -4.63,9.65 -7.85,13.07 -3.23,3.41 -6.86,5.94 -10.89,7.61 -4.03,1.64 -8.12,2.47 -12.21,2.47 -2.88,0 -5.48,-0.35 -7.8,-1.05 -2.31,-0.7 -4.33,-1.56 -6.05,-2.63 -1.75,-1.05 -3.2,-2.15 -4.38,-3.31 -1.18,-1.16 -2.1,-2.18 -2.79,-3.06l-0.3 0 -1.83 8.12 -15.43 0c0.11,-2.26 0.22,-5.06 0.3,-8.39 0.08,-3.33 0.11,-6.51 0.11,-9.49l0 -96.18 18.71 0 0 31.73c0,2.26 0,4.33 -0.03,6.27 -0.03,1.91 -0.08,3.39 -0.13,4.44l0.16 0c1.21,-0.83 2.53,-1.64 3.93,-2.45 1.43,-0.78 2.96,-1.48 4.65,-2.12 1.67,-0.62 3.47,-1.13 5.43,-1.51 1.94,-0.35 3.98,-0.54 6.13,-0.54 4.25,0 8.36,0.78 12.37,2.31 4.04,1.56 7.58,3.93 10.7,7.1 3.12,3.17 5.59,7.26 7.45,12.21 1.83,4.97 2.74,10.68 2.74,17.13zm-19.36 0.94c0,-4.79 -0.57,-8.9 -1.72,-12.34 -1.16,-3.44 -2.66,-6.08 -4.52,-7.88 -1.86,-1.83 -3.79,-3.04 -5.81,-3.68 -2.02,-0.62 -4.01,-0.94 -6,-0.94 -2.71,0 -5.48,0.56 -8.31,1.67 -2.82,1.1 -5.38,2.55 -7.69,4.41l0 36.59c0.73,0.86 1.64,1.75 2.72,2.66 1.05,0.92 2.26,1.75 3.6,2.53 1.32,0.75 2.77,1.4 4.36,1.88 1.56,0.51 3.23,0.75 5,0.75 3.04,0 5.7,-0.62 7.99,-1.85 2.26,-1.24 4.17,-2.98 5.7,-5.24 1.56,-2.26 2.71,-4.95 3.49,-8.09 0.78,-3.12 1.18,-6.62 1.18,-10.46z"/>
  <path id="8" class="fil1" d="M781.66 441.53l20 0 11.43 27.64c4.3,10.51 7.37,18.28 9.14,23.31l0.32 0c1.32,-3.93 4.09,-11.24 8.34,-21.89l11.83 -29.07 20.25 0 -49.15 112.93 -18.45 0 17.5 -40.87 -31.22 -72.06z"/>
  <polygon class="fil1" points="1787.06,413.81 1787.06,500.01 1834.71,500.01 1834.71,515.59 1768.36,515.59 1768.36,413.81 "/>
  <path id="1" class="fil1" d="M1901.57 478.73c0,-3.9 -0.47,-7.35 -1.38,-10.34 -0.91,-2.99 -2.16,-5.48 -3.79,-7.51 -1.61,-2.03 -3.56,-3.56 -5.85,-4.57 -2.28,-1.01 -4.78,-1.51 -7.45,-1.51 -2.62,0 -5.07,0.5 -7.33,1.51 -2.26,1.01 -4.21,2.54 -5.82,4.57 -1.61,2.02 -2.88,4.52 -3.79,7.51 -0.91,2.99 -1.38,6.44 -1.38,10.34 0,3.9 0.47,7.35 1.38,10.34 0.91,2.99 2.18,5.48 3.82,7.48 1.66,2 3.61,3.51 5.87,4.55 2.23,1.04 4.73,1.56 7.4,1.56 2.68,0 5.14,-0.52 7.38,-1.56 2.23,-1.04 4.16,-2.55 5.77,-4.55 1.64,-2 2.88,-4.49 3.79,-7.48 0.91,-2.99 1.38,-6.44 1.38,-10.34zm18.7 0c0,5.79 -0.86,11.07 -2.6,15.82 -1.71,4.78 -4.18,8.86 -7.43,12.26 -3.22,3.4 -7.12,6.03 -11.69,7.87 -4.57,1.84 -9.66,2.78 -15.3,2.78 -5.79,0 -10.99,-0.93 -15.59,-2.78 -4.6,-1.85 -8.49,-4.47 -11.69,-7.87 -3.2,-3.4 -5.64,-7.48 -7.35,-12.26 -1.69,-4.75 -2.54,-10.03 -2.54,-15.82 0,-5.79 0.86,-11.07 2.6,-15.82 1.72,-4.78 4.18,-8.86 7.43,-12.26 3.22,-3.4 7.12,-6.03 11.69,-7.87 4.57,-1.85 9.66,-2.78 15.3,-2.78 5.79,0 10.99,0.93 15.59,2.78 4.6,1.84 8.5,4.47 11.69,7.87 3.2,3.4 5.64,7.48 7.35,12.26 1.69,4.75 2.55,10.03 2.55,15.82z"/>
  <path id="2" class="fil1" d="M1984.12 517.46c0,-1.01 0,-2.26 0.03,-3.77 0.02,-1.51 0.1,-2.75 0.21,-3.77l-0.16 0c-1.12,0.91 -2.39,1.82 -3.84,2.7 -1.46,0.88 -3.04,1.69 -4.78,2.44 -1.71,0.73 -3.61,1.33 -5.72,1.74 -2.08,0.44 -4.21,0.65 -6.39,0.65 -3.92,0 -7.74,-0.7 -11.48,-2.1 -3.71,-1.38 -7.04,-3.59 -9.92,-6.6 -2.91,-3.04 -5.25,-6.91 -7.01,-11.61 -1.79,-4.73 -2.68,-10.39 -2.68,-17.04 0,-6.65 0.91,-12.47 2.7,-17.48 1.82,-4.99 4.21,-9.17 7.2,-12.49 3.01,-3.35 6.44,-5.87 10.34,-7.59 3.9,-1.69 7.9,-2.54 12,-2.54 4.52,0 8.55,0.96 12.03,2.86 3.51,1.92 6.39,4.34 8.62,7.3l0.31 0 0.75 -8.29 15.87 0 0 75.07c0,4.31 -0.36,8 -1.06,11.09 -0.73,3.09 -1.77,5.84 -3.14,8.23 -1.61,2.78 -3.69,5.22 -6.21,7.3 -2.52,2.08 -5.38,3.79 -8.6,5.17 -3.25,1.38 -6.78,2.39 -10.62,3.06 -3.87,0.7 -7.95,1.04 -12.26,1.04 -2.44,0 -4.83,-0.08 -7.14,-0.26 -2.34,-0.18 -4.55,-0.44 -6.6,-0.75 -2.05,-0.34 -3.92,-0.7 -5.64,-1.14 -1.69,-0.42 -3.12,-0.86 -4.29,-1.32l0 -14.6c3.35,1.07 6.86,1.87 10.55,2.44 3.66,0.54 7.53,0.83 11.59,0.83 8.08,0 14.31,-1.56 18.73,-4.68 4.42,-3.12 6.62,-7.82 6.62,-14.16l0 -1.74zm-16.13 -14.34c1.82,0 3.53,-0.23 5.17,-0.67 1.64,-0.47 3.12,-1.04 4.49,-1.77 1.38,-0.7 2.6,-1.51 3.69,-2.36 1.09,-0.86 2.03,-1.71 2.78,-2.6l0 -32.99c-1.92,-2.29 -4.31,-4.18 -7.14,-5.72 -2.86,-1.53 -5.87,-2.31 -9.07,-2.36 -1.12,0 -2.31,0.13 -3.56,0.42 -1.22,0.29 -2.49,0.78 -3.77,1.48 -1.27,0.73 -2.47,1.66 -3.61,2.86 -1.14,1.19 -2.13,2.7 -3.02,4.55 -0.86,1.82 -1.56,4 -2.08,6.55 -0.55,2.54 -0.81,5.48 -0.81,8.86 0,3.69 0.36,7.01 1.07,9.92 0.7,2.94 1.77,5.43 3.19,7.48 1.43,2.05 3.2,3.64 5.3,4.73 2.11,1.09 4.55,1.64 7.35,1.64z"/>
  <path id="3" class="fil1" d="M2022.29 441.87l18.08 0 0 73.72 -18.08 0 0 -73.72zm-0.47 -36.47l19.02 0 0 19.48 -19.02 0 0 -19.48z"/>
  <path id="4" class="fil1" d="M2113.8 513.98c-2.28,0.96 -5.09,1.77 -8.39,2.47 -3.3,0.67 -6.75,1.01 -10.42,1.01 -5.32,0 -10.31,-0.75 -14.91,-2.28 -4.63,-1.51 -8.68,-3.82 -12.13,-6.91 -3.45,-3.12 -6.18,-7.01 -8.16,-11.77 -2,-4.75 -2.99,-10.29 -2.99,-16.62 0,-7.09 1.14,-13.2 3.43,-18.26 2.28,-5.06 5.27,-9.19 8.91,-12.36 3.63,-3.17 7.71,-5.51 12.26,-7.01 4.55,-1.48 9.01,-2.23 13.43,-2.23 3.3,0 6.47,0.29 9.51,0.88 3.06,0.57 5.82,1.38 8.31,2.39l0 14.65c-2.23,-0.93 -4.62,-1.69 -7.12,-2.26 -2.52,-0.57 -5.22,-0.86 -8.1,-0.86 -2.91,0 -5.66,0.44 -8.31,1.33 -2.62,0.88 -4.96,2.29 -6.99,4.21 -2.02,1.95 -3.64,4.47 -4.83,7.64 -1.19,3.17 -1.79,6.99 -1.79,11.43 0,3.25 0.47,6.31 1.38,9.17 0.91,2.86 2.23,5.3 4,7.33 1.74,2.03 3.97,3.66 6.67,4.89 2.73,1.25 5.92,1.87 9.64,1.87 3.3,0 6.29,-0.31 8.99,-0.93 2.68,-0.65 5.22,-1.43 7.61,-2.34l0 14.6z"/>
  <path id="5" class="fil1" d="M2209.97 486.31c0,-2.57 -0.62,-4.68 -1.9,-6.26 -1.27,-1.61 -2.99,-2.91 -5.17,-3.92 -2.18,-1.04 -4.62,-1.84 -7.33,-2.49 -2.7,-0.62 -5.56,-1.25 -8.52,-1.85 -3.95,-0.88 -7.74,-1.9 -11.33,-3.09 -3.58,-1.19 -6.75,-2.86 -9.48,-4.96 -2.73,-2.11 -4.91,-4.78 -6.52,-8.03 -1.64,-3.25 -2.44,-7.3 -2.44,-12.18 0,-5.38 0.93,-10.05 2.83,-14.05 1.87,-3.97 4.44,-7.27 7.66,-9.9 3.25,-2.6 7.01,-4.55 11.38,-5.84 4.34,-1.3 9.22,-1.95 14.65,-1.95 5.43,0 10.88,0.52 16.36,1.58 5.48,1.07 10.18,2.44 14.16,4.11l0 15.98c-5.27,-2.08 -10.34,-3.59 -15.2,-4.52 -4.83,-0.93 -9.4,-1.4 -13.66,-1.4 -6.13,0 -10.86,1.12 -14.18,3.35 -3.33,2.23 -4.99,5.58 -4.99,10.05 0,2.6 0.54,4.73 1.64,6.42 1.09,1.66 2.54,3.04 4.41,4.13 1.87,1.09 4.03,1.97 6.47,2.65 2.42,0.65 4.99,1.25 7.72,1.82 4.31,0.91 8.42,1.97 12.31,3.17 3.92,1.17 7.41,2.83 10.44,4.96 3.01,2.16 5.43,4.91 7.2,8.34 1.77,3.43 2.65,7.82 2.65,13.14 0,5.48 -1.01,10.23 -3.04,14.24 -2.02,4 -4.91,7.33 -8.65,9.95 -3.71,2.6 -8.24,4.55 -13.56,5.82 -5.35,1.27 -11.17,1.9 -17.51,1.9 -5.53,0 -10.99,-0.54 -16.34,-1.64 -5.35,-1.09 -9.79,-2.62 -13.35,-4.6l0 -15.74c5.04,2.18 9.92,3.77 14.7,4.75 4.75,0.99 9.69,1.48 14.75,1.48 2.94,0 5.85,-0.24 8.68,-0.73 2.83,-0.47 5.38,-1.3 7.64,-2.47 2.26,-1.17 4.08,-2.75 5.46,-4.78 1.38,-2 2.05,-4.47 2.05,-7.43z"/>
  <path id="6" class="fil1" d="M2299.3 478.73c0,-3.9 -0.47,-7.35 -1.38,-10.34 -0.91,-2.99 -2.16,-5.48 -3.79,-7.51 -1.61,-2.03 -3.56,-3.56 -5.85,-4.57 -2.28,-1.01 -4.78,-1.51 -7.45,-1.51 -2.62,0 -5.07,0.5 -7.33,1.51 -2.26,1.01 -4.21,2.54 -5.82,4.57 -1.61,2.02 -2.88,4.52 -3.79,7.51 -0.91,2.99 -1.38,6.44 -1.38,10.34 0,3.9 0.47,7.35 1.38,10.34 0.91,2.99 2.18,5.48 3.82,7.48 1.66,2 3.61,3.51 5.87,4.55 2.23,1.04 4.73,1.56 7.4,1.56 2.68,0 5.14,-0.52 7.38,-1.56 2.23,-1.04 4.16,-2.55 5.77,-4.55 1.64,-2 2.88,-4.49 3.79,-7.48 0.91,-2.99 1.38,-6.44 1.38,-10.34zm18.7 0c0,5.79 -0.86,11.07 -2.6,15.82 -1.71,4.78 -4.18,8.86 -7.43,12.26 -3.22,3.4 -7.12,6.03 -11.69,7.87 -4.57,1.84 -9.66,2.78 -15.3,2.78 -5.79,0 -10.99,-0.93 -15.59,-2.78 -4.6,-1.85 -8.49,-4.47 -11.69,-7.87 -3.2,-3.4 -5.64,-7.48 -7.35,-12.26 -1.69,-4.75 -2.54,-10.03 -2.54,-15.82 0,-5.79 0.86,-11.07 2.6,-15.82 1.72,-4.78 4.18,-8.86 7.43,-12.26 3.22,-3.4 7.12,-6.03 11.69,-7.87 4.57,-1.85 9.66,-2.78 15.3,-2.78 5.79,0 10.99,0.93 15.59,2.78 4.6,1.84 8.5,4.47 11.69,7.87 3.2,3.4 5.64,7.48 7.35,12.26 1.69,4.75 2.55,10.03 2.55,15.82z"/>
  <polygon id="7" class="fil1" points="2334.63,515.59 2334.63,405.4 2352.71,405.4 2352.71,515.59 "/>
  <path id="8" class="fil1" d="M2405.94 517.46c-7.4,0 -13.56,-1.25 -18.42,-3.77 -4.88,-2.52 -8.57,-5.9 -11.04,-10.16 -1.32,-2.29 -2.31,-4.78 -2.94,-7.53 -0.65,-2.73 -0.96,-5.77 -0.96,-9.12l0 -45.02 18.08 0 0 43.07c0,2.49 0.18,4.63 0.52,6.44 0.36,1.79 0.91,3.35 1.61,4.67 1.22,2.21 2.94,3.87 5.17,4.96 2.23,1.09 4.89,1.64 7.98,1.64 3.25,0 6.03,-0.6 8.31,-1.82 2.31,-1.22 4.05,-3.07 5.22,-5.56 1.17,-2.36 1.74,-5.69 1.74,-9.95l0 -43.46 18.08 0 0 45.02c0,5.97 -1.04,11.04 -3.12,15.14 -1.17,2.31 -2.68,4.44 -4.55,6.34 -1.84,1.9 -4.03,3.53 -6.55,4.86 -2.49,1.35 -5.35,2.39 -8.52,3.14 -3.17,0.73 -6.7,1.09 -10.62,1.09z"/>
  <path id="9" class="fil1" d="M2503.27 515.49c-2.02,0.6 -4.44,1.09 -7.25,1.45 -2.83,0.34 -5.45,0.52 -7.9,0.52 -6.18,0 -11.25,-1.01 -15.2,-3.01 -3.95,-2 -6.73,-4.88 -8.34,-8.62 -1.17,-2.7 -1.77,-6.34 -1.77,-10.96l0 -38.18 -13.77 0 0 -14.81 13.77 0 0 -20.57 18.08 0 0 20.57 21.3 0 0 14.81 -21.3 0 0 35.85c0,2.83 0.44,4.94 1.3,6.31 1.51,2.34 4.55,3.51 9.04,3.51 2.1,0 4.16,-0.16 6.21,-0.5 2.05,-0.34 4,-0.75 5.82,-1.25l0 14.88z"/>
  <path id="10" class="fil1" d="M2517.74 441.87l18.08 0 0 73.72 -18.08 0 0 -73.72zm-0.47 -36.47l19.02 0 0 19.48 -19.02 0 0 -19.48z"/>
  <path id="11" class="fil1" d="M2607.75 478.73c0,-3.9 -0.47,-7.35 -1.38,-10.34 -0.91,-2.99 -2.16,-5.48 -3.79,-7.51 -1.61,-2.03 -3.56,-3.56 -5.85,-4.57 -2.28,-1.01 -4.78,-1.51 -7.45,-1.51 -2.62,0 -5.07,0.5 -7.33,1.51 -2.26,1.01 -4.21,2.54 -5.82,4.57 -1.61,2.02 -2.88,4.52 -3.79,7.51 -0.91,2.99 -1.38,6.44 -1.38,10.34 0,3.9 0.47,7.35 1.38,10.34 0.91,2.99 2.18,5.48 3.82,7.48 1.66,2 3.61,3.51 5.87,4.55 2.23,1.04 4.73,1.56 7.4,1.56 2.68,0 5.14,-0.52 7.38,-1.56 2.23,-1.04 4.16,-2.55 5.77,-4.55 1.64,-2 2.88,-4.49 3.79,-7.48 0.91,-2.99 1.38,-6.44 1.38,-10.34zm18.7 0c0,5.79 -0.86,11.07 -2.6,15.82 -1.71,4.78 -4.18,8.86 -7.43,12.26 -3.22,3.4 -7.12,6.03 -11.69,7.87 -4.57,1.84 -9.66,2.78 -15.3,2.78 -5.79,0 -10.99,-0.93 -15.59,-2.78 -4.6,-1.85 -8.49,-4.47 -11.69,-7.87 -3.2,-3.4 -5.64,-7.48 -7.35,-12.26 -1.69,-4.75 -2.54,-10.03 -2.54,-15.82 0,-5.79 0.86,-11.07 2.6,-15.82 1.72,-4.78 4.18,-8.86 7.43,-12.26 3.22,-3.4 7.12,-6.03 11.69,-7.87 4.57,-1.85 9.66,-2.78 15.3,-2.78 5.79,0 10.99,0.93 15.59,2.78 4.6,1.84 8.5,4.47 11.69,7.87 3.2,3.4 5.64,7.48 7.35,12.26 1.69,4.75 2.55,10.03 2.55,15.82z"/>
  <path id="12" class="fil1" d="M2658.93 452.1l0.31 0c1.07,-1.53 2.42,-3.01 4.03,-4.49 1.64,-1.48 3.48,-2.75 5.56,-3.87 2.08,-1.12 4.39,-2.03 6.88,-2.7 2.52,-0.7 5.2,-1.04 8.03,-1.04 2.7,0 5.3,0.31 7.82,0.91 2.49,0.62 4.8,1.56 6.88,2.86 2.08,1.3 3.92,2.96 5.51,5.01 1.61,2.08 2.86,4.52 3.77,7.35 0.52,1.59 0.86,3.3 1.04,5.14 0.18,1.85 0.26,4 0.26,6.44l0 47.87 -18.08 0 0 -45.09c0,-1.98 -0.08,-3.66 -0.24,-5.09 -0.16,-1.43 -0.42,-2.68 -0.83,-3.74 -0.91,-2.34 -2.28,-4 -4.13,-5.01 -1.87,-1.01 -4.1,-1.53 -6.73,-1.53 -3.51,0 -6.86,0.83 -10.08,2.49 -3.22,1.64 -6.05,4.05 -8.55,7.19l0 50.79 -18.08 0 0 -73.72 14.96 0 1.66 10.24z"/>
  <path class="fil2 str1" d="M1315.81 502.13l1.05 -6.06 -0.44 3.24c41.77,10.29 101.75,-28.57 113.38,-65.05l17.78 -123.8 104.99 196.85 -0.09 0.72 0.48 -0 0.31 0.58 0.09 -0.58c52.54,-0.04 88.22,-21.67 107.77,-63.95l0.63 -1.37 0.05 -0.12c2.53,-5.54 4.78,-11.43 6.76,-17.68l12.58 -112.25c-11.79,-52.33 -79.27,-58.61 -101.56,-18l-0.03 0.21 -0.36 0.62 -5.76 45.81 -100.56 -191.39 -2.33 0.5 0.18 -1.25c-60.15,-1.71 -99.03,25.23 -117.7,79.41l-5.45 40.3 -92.42 -263.56 -2.8 1.75 0.55 -4.66c-60.18,-0.23 -98.38,27.66 -115.71,82.28l-42.43 376.7c11.79,52.33 79.27,58.61 101.57,18l31.77 -267.87 87.69 290.59z"/>
  <path class="fil1" d="M1257.31 616.24l-24.33 24.76 0 182.59 21.84 20.94 -81.8 0 24.64 -20.94 0 -119.54 -56.25 155.04 -17.05 0 -1.4 -4.73 15.41 0 59.29 -165.42 0 -27.31 -66.02 182.53 -12.44 0 -48.61 -143.33 0 93.94c0,12.56 0.85,21.48 2.49,26.64 1.64,5.22 5.58,10.98 11.71,17.23l15.96 20.45 -93.21 0 -3.21 -4.73 87.56 0 -6.55 -9.83 -79.61 0 3.76 -1.94c13.17,-7.28 21.85,-14.62 26.03,-22.03 4.19,-7.41 6.31,-19.12 6.31,-35.2l0 -147.03 -23.48 -22.09 92.18 0 -25.73 23.3 50.24 148.85 6.37 -15.47 -45.45 -131.92 23.24 -17.29 3.76 3.03 -22.21 15.66 42.23 123.97 45.82 -126.82 -21.66 -23.3 90.17 0zm-201.28 42.23l0 127.61c0,19.54 1.88,32.95 5.64,40.29 3.76,7.34 11.53,12.68 23.3,16.02l-1.58 -2.67c-11.71,-8.07 -17.54,-19.66 -17.54,-34.83l0 -13.11 0 -105.04 -9.83 -28.28zm211.23 -28.34l-20.09 14.44 0 179.38 30.95 35.14 -94.54 0 -2.49 -4.73 86.17 0 -24.82 -27.91 0 -184.9 21.12 -14.44 3.7 3.03z"/>
  <path id="1" class="fil1" d="M1584.39 555.25c-16.44,18.14 -28.89,36.23 -37.2,54.25 -8.37,18.02 -18.27,47.88 -29.61,89.51l-30.77 112.08 3.58 13.9 21.84 19.54 -81.07 0 23.3 -19.54 -31.49 -114.02 -30.59 111.53 30.59 36.59 -90.84 0 -3.52 -4.73 84.59 0 -26.64 -30.83 33.56 -121.6 -5.82 -21.18 -36.47 133.2 2.85 11.04 20.81 19.54 -81.25 0 24.15 -19.54 -51.7 -186.29 -26.7 -22.45 86.96 0 -24.33 22.45 40.66 146.61 6.25 -21.48 -34.29 -122.45 16.14 -14.44 4.13 2.85 -14.81 13.17 31.13 111.96 38.05 -138.66 16.69 0 46.24 167.66 5.7 -20.09 -40.9 -147.58 4.98 0 38.23 138.66 16.81 -60.14c10.5,-37.74 15.72,-62.32 15.72,-73.67 0,-12.74 -6.01,-22.69 -17.96,-29.91 13.9,-4.37 28.76,-10.38 44.66,-17.96 15.84,-7.58 27.73,-14.38 35.56,-20.45l2.79 2.49zm10.68 13.53c-14.2,15.66 -25.91,33.31 -35.07,53.04 -9.22,19.66 -18.63,47.21 -28.22,82.53l-31.43 114.93 34.1 39.81 -91.21 0 -4.06 -4.73 84.41 0 -28.76 -33.26 32.71 -119.24c9.71,-35.32 18.99,-62.56 27.91,-81.56 8.86,-19.05 20.75,-37.26 35.56,-54.55l4.06 3.03z"/>
  <path id="2" class="fil1" d="M1758.6 621.76l-1.94 3.4c-10.68,18.63 -19.9,37.26 -27.73,55.89l-1.58 4.13 -2.31 -1.27c-2.79,-17.96 -9.1,-32.22 -19.12,-42.78 -9.95,-10.5 -22.03,-15.78 -36.16,-15.78 -15.11,0 -27.67,6.55 -37.81,19.72 -12.68,16.32 -19.05,44.06 -19.05,83.13 0,33.62 5.83,59.95 17.54,79.01 11.71,19.05 27.98,28.58 48.79,28.58 16.63,0 29.92,-5.52 39.81,-16.57 9.95,-11.04 15.84,-26.82 17.78,-47.33 0.42,-4.97 2.49,-7.46 6.01,-7.46 4.67,0 6.98,3.82 6.98,11.53 0,11.47 -2.61,23.36 -7.83,35.68 -11.04,26.03 -33.8,39.08 -68.39,39.08 -30.83,0 -55.34,-10.8 -73.48,-32.46 -18.14,-21.66 -27.25,-50.91 -27.25,-87.81 0,-33.98 9.41,-62.5 28.28,-85.5 18.87,-23 42.3,-34.53 70.33,-34.53 13.23,0 28.4,3.28 45.33,9.77 8.92,3.46 16.26,5.16 22.09,5.16 6.25,0 11.89,-1.76 16.87,-5.22l2.85 1.64zm-51.52 30.83c-10.74,-8.68 -20.93,-13.05 -30.46,-13.05 -30.59,0 -45.88,29.31 -45.88,87.93 0,26.64 3.52,48.85 10.56,66.63 7.1,17.72 17.05,29.19 29.85,34.41l0 1.76c-13.96,-2.85 -25.06,-13.59 -33.37,-32.28 -8.31,-18.63 -12.5,-42.3 -12.5,-70.87 0,-61.29 16.81,-91.93 50.37,-91.93 11.35,0 21.84,5.04 31.43,15.11l0 2.3zm57.95 122.21c-1.94,29.37 -10.13,51.76 -24.64,67.11 -14.5,15.35 -34.83,23 -60.86,23 -19.84,0 -38.23,-6.07 -55.34,-18.27l0 -1.45c15.17,10.01 33.5,14.99 54.98,14.99 23.42,0 42.6,-7.52 57.41,-22.57 7.22,-7.34 12.56,-15.6 16.02,-24.76 3.4,-9.1 5.7,-21.18 6.92,-36.29l0.36 -4.07 5.16 2.31zm6.56 -144.36l-1.94 3.4c-12.93,22.09 -23.24,42.17 -30.95,60.32l-4.79 -2.3 1.94 -4.43c5.95,-12.5 11.16,-22.82 15.66,-31.01l14.2 -25.24 1.82 -3.22 4.07 2.49z"/>
 </g>
</svg>
